<svg version="1.2" xmlns="http://www.w3.org/2000/svg" viewBox="0 0 1024 1024" width="1024" height="1024">
	<style>
		.s0 { fill: #2bb3ee } 
		.s1 { fill: #001826 } 
	</style>
	<g id="Background">
		<path id="Path 0" class="s0" d="m0 512v512h1024v-1024h-1024z"/>
		<path id="Path 1" class="s1" d="m327 87.28c-2.48 0.69-6.52 2.43-9 3.86-2.48 1.43-5.96 4.24-7.75 6.23-1.79 2-4.1 5.32-5.15 7.38-1.04 2.06-2.37 6.22-2.95 9.25-0.65 3.39-0.74 7.61-0.22 11 0.46 3.03 1.96 7.75 3.34 10.5 1.38 2.75 4.69 7.06 7.37 9.57 2.97 2.8 7.19 5.46 10.86 6.85 4.88 1.85 7.3 2.18 13 1.77 5.58-0.4 8.62-1.32 15-4.55l8-4.05c6.2 3.25 10.48 5.87 13.5 7.92 3.02 2.05 8.99 7.39 13.25 11.86 4.26 4.47 9.86 11.39 12.44 15.38 2.59 3.99 6.13 10.4 7.89 14.25 1.76 3.85 4.37 10.6 5.81 15 1.43 4.4 2.5 8.05 2.36 8.11-0.14 0.06-4.98 2.53-10.75 5.49-5.77 2.95-14.77 8.23-20 11.73-5.23 3.5-13.55 9.64-18.5 13.66-4.95 4.01-12.85 11.28-17.56 16.15-4.71 4.87-12.24 13.81-16.73 19.86-4.49 6.05-10.58 15.27-13.52 20.5-2.95 5.23-7.42 14.23-9.94 20-2.52 5.77-5.98 14.89-7.67 20.25-1.69 5.36-4.17 15.71-5.5 23-1.33 7.29-2.8 17.87-3.25 23.51-0.46 5.64-0.94 10.25-1.08 10.25-0.14-0.01-1.94-1.3-4-2.87-2.06-1.57-8.02-5.43-13.25-8.58-5.23-3.15-13.77-7.78-19-10.29-5.22-2.51-14.68-6.26-21-8.33-6.32-2.07-16.45-4.72-22.5-5.88-6.05-1.17-16.18-2.39-22.5-2.73-6.89-0.36-15.71-0.11-22 0.63-5.78 0.68-14.32 2.34-19 3.69-4.68 1.35-13 4.62-18.5 7.25-5.5 2.64-13.6 7.49-18 10.78-4.4 3.3-11.16 9.33-15.03 13.41-3.86 4.07-8.87 10.11-11.11 13.41-2.25 3.3-5.67 9.15-7.6 13-1.94 3.85-4.7 10.6-6.14 15-1.45 4.4-3.3 12.5-4.12 18-0.82 5.5-1.49 12.93-1.5 16.5 0 3.57 0.47 10.32 1.04 15 0.57 4.68 2.17 12.77 3.55 18 1.38 5.23 4.39 13.77 6.7 19 2.3 5.23 7.33 14.23 11.17 20 4.22 6.35 11.33 15 18.01 21.88 6.06 6.25 15.59 14.8 21.16 19 5.57 4.19 15.02 10.4 21 13.81 5.98 3.4 14.24 7.58 18.37 9.29 4.12 1.71 8.62 3.55 10 4.08l2.5 0.98c-8.62 8.88-12.94 14.16-15.17 17.46-2.23 3.3-5.08 8.02-6.34 10.5-1.25 2.48-3.36 7.65-4.67 11.5-1.31 3.85-3.05 10.83-3.86 15.5-0.82 4.67-1.48 10.75-1.48 13.5 0 2.75 0.68 8.94 1.51 13.75 0.83 4.81 2.66 12.01 4.06 16 1.4 3.99 3.95 9.73 5.68 12.75 1.72 3.02 5 7.98 7.29 11 2.3 3.02 6.89 7.98 10.22 11 3.32 3.02 8.91 7.2 12.4 9.27 3.5 2.07 9.96 5.16 14.36 6.85 4.4 1.7 11.6 3.77 16 4.6 5.76 1.09 12.05 1.38 22.5 1.04 10.27-0.33 16.84-1.08 22.5-2.57 4.4-1.15 11.04-3.24 14.75-4.64 3.71-1.4 10.24-4.33 14.5-6.5 4.26-2.17 9.66-5.1 12-6.5l4.25-2.55c3.31 10.46 6.15 17.55 8.45 22.5 2.29 4.95 6.85 13.27 10.13 18.5 3.27 5.23 8.65 13.09 11.94 17.49 3.29 4.39 10.71 12.89 16.48 18.88 5.77 5.98 15 14.51 20.5 18.94 5.5 4.43 13.82 10.52 18.5 13.53 4.68 3.02 12.77 7.68 18 10.36 5.23 2.67 14.23 6.71 20 8.96 5.77 2.26 15.68 5.4 22 7 6.32 1.59 14.56 3.22 18.29 3.62l6.79 0.72c1.54 6.2 3.15 11.83 4.56 16.5 1.42 4.67 3.79 11.2 5.27 14.5 1.48 3.3 4.14 8.14 5.89 10.75 1.76 2.61 4.66 5.64 6.45 6.73 1.79 1.09 5.05 2.27 7.25 2.61 2.96 0.46 5.04 0.1 8-1.39 2.2-1.11 5.16-3.3 6.58-4.86 1.42-1.56 3.61-4.64 4.86-6.84 1.24-2.2 3.41-6.7 4.8-10 1.4-3.3 3.94-10.92 5.65-16.93l3.11-10.94c13.95-2.04 22.05-3.72 27-5.03 4.95-1.32 13.5-4.07 19-6.11 5.5-2.04 14.73-6.12 20.5-9.06 5.77-2.95 15.23-8.43 21-12.2 5.77-3.77 14.55-10.25 19.5-14.4 4.95-4.16 13.01-11.78 17.92-16.94 4.9-5.17 11.47-12.76 14.6-16.89 3.13-4.12 8.31-11.55 11.51-16.5 3.21-4.95 7.77-13.16 10.15-18.25 2.37-5.09 5.33-12.34 6.57-16.12 1.24-3.79 2.59-7.16 3-7.5 0.41-0.35 1.99 0.22 3.5 1.27 1.51 1.04 6.8 3.95 11.75 6.46 4.95 2.51 13.05 5.95 18 7.63 4.95 1.69 12.83 3.74 17.5 4.55 4.67 0.81 14.01 1.48 20.75 1.47 7.21-0.01 15.44-0.66 20-1.6 4.26-0.87 10.9-2.79 14.75-4.27 3.85-1.47 10.6-4.91 15-7.63 4.4-2.73 10.94-7.89 14.54-11.48 3.6-3.59 8.52-9.45 10.94-13.03 2.41-3.58 5.65-9.2 7.18-12.5 1.54-3.3 3.77-9.6 4.97-14 1.71-6.3 2.19-10.88 2.23-21.5 0.04-10.91-0.38-15.13-2.19-22-1.23-4.67-4.07-12.33-6.3-17-2.24-4.67-5.47-10.52-7.19-13-1.72-2.48-5.5-7.31-8.4-10.75-2.9-3.44-5.17-6.42-5.03-6.63 0.14-0.22 3.85-1.82 8.25-3.56 4.4-1.75 12.27-5.45 17.5-8.23 5.23-2.78 13.55-7.88 18.5-11.33 4.95-3.45 12.83-9.63 17.5-13.73 4.67-4.11 11.71-11.24 15.63-15.87 3.92-4.62 9.74-12.45 12.95-17.4 3.2-4.95 7.25-12.15 9-16 1.75-3.85 4.34-10.37 5.75-14.5 1.41-4.12 3.34-11.77 4.29-17 1.11-6.08 1.71-14.36 1.68-23-0.04-8.79-0.64-16.12-1.73-21-0.91-4.12-2.8-10.87-4.19-15-1.39-4.12-4.31-10.87-6.5-15-2.18-4.12-5.96-10.2-8.4-13.5-2.44-3.3-7.93-9.53-12.21-13.85-4.27-4.31-10.47-9.78-13.77-12.16-3.3-2.37-9.83-6.22-14.5-8.55-4.67-2.33-11.42-5.24-15-6.46-3.58-1.22-10.33-3.05-15-4.07-6.38-1.39-12.61-1.85-25-1.83-12.81 0.02-18.96 0.51-27.5 2.19-6.05 1.19-16.4 4-23 6.24-6.6 2.24-17.85 6.93-25 10.43-7.15 3.5-17.39 9.33-22.75 12.96-5.36 3.63-9.9 6.49-10.09 6.35-0.19-0.14-0.88-6.32-1.52-13.75-0.64-7.43-2.09-18-3.21-23.5-1.12-5.5-4.05-16.07-6.51-23.5-2.46-7.43-6.89-18.45-9.84-24.5-2.96-6.05-8.05-15.05-11.31-20-3.26-4.95-8.66-12.37-12-16.5-3.33-4.12-11.39-12.69-17.91-19.04-6.53-6.34-15.91-14.55-20.86-18.23-4.95-3.69-13.5-9.38-19-12.65-5.5-3.27-12.82-7.22-16.27-8.77-6.23-2.79-6.27-2.83-5.69-6.31 0.32-1.93 2.48-8.22 4.79-14 2.32-5.78 6.3-13.87 8.86-18 2.55-4.12 7.6-10.99 11.23-15.25 3.62-4.26 9.84-10.05 13.83-12.85 3.99-2.81 9.59-6.3 12.45-7.75 4.9-2.49 5.31-2.55 7-0.96 0.99 0.92 4.5 2.95 7.8 4.5 5.11 2.39 7.26 2.81 14.5 2.8 7.45-0.01 9.23-0.38 14.37-3 3.23-1.64 7.62-4.9 9.75-7.24 2.14-2.34 4.86-6.16 6.06-8.5 1.57-3.07 2.29-6.61 2.6-12.75 0.34-7.08 0.03-9.5-1.86-14.5-1.56-4.14-3.84-7.56-7.34-11.04-2.8-2.77-7.33-6.12-10.08-7.45-4.07-1.96-6.59-2.41-13.5-2.42-6.74-0.02-9.54 0.45-13.5 2.26-2.75 1.25-6.56 3.48-8.46 4.96-1.9 1.48-4.73 4.72-6.29 7.19-1.56 2.47-3.49 6.75-4.29 9.5-1.44 4.92-1.59 5.06-9.21 8.47-4.26 1.91-11.58 6.03-16.25 9.15-4.67 3.12-12.35 9.65-17.05 14.52-4.7 4.87-10.82 12.23-13.61 16.36-2.78 4.13-6.76 10.88-8.84 15-2.08 4.13-5.72 13.35-8.09 20.5-2.91 8.78-4.73 12.88-5.61 12.64-0.71-0.2-6.47-1.65-12.8-3.22-6.33-1.57-16.79-3.54-23.25-4.39-6.79-0.88-19.34-1.53-29.75-1.53-10.41 0-22.96 0.65-29.75 1.53-6.46 0.85-16.93 2.83-23.25 4.4-6.32 1.57-12.18 3.15-13 3.5-1.17 0.51-1.89-0.85-3.25-6.14-0.96-3.74-3.04-10.17-4.62-14.29-1.58-4.13-4.11-9.97-5.62-13-1.52-3.03-5.23-9.32-8.24-14-3.36-5.19-9.63-12.61-16.13-19.06-6.95-6.9-13.59-12.37-19.14-15.78-4.68-2.88-11.08-6.22-14.24-7.44-5.42-2.1-5.79-2.46-6.84-6.72-0.6-2.47-1.91-6.08-2.89-8-0.99-1.93-3.99-5.5-6.66-7.95-2.68-2.45-6.89-5.33-9.37-6.4-2.48-1.07-7.2-2.1-10.5-2.29-3.3-0.19-8.02 0.22-10.5 0.92z"/>
		<path id="Path 2" class="s0" d="m486.5 228.1c-4.4 0.53-13.18 2.13-19.5 3.55-6.32 1.42-14.88 3.71-19 5.09-4.13 1.39-11.32 4.15-16 6.16-4.68 2-12.77 6.01-18 8.91-5.23 2.89-13.77 8.29-19 11.98-5.44 3.84-15.5 12.69-23.54 20.71-9.87 9.85-16 16.97-20.68 24-3.66 5.5-9.11 14.95-12.11 21-3.01 6.05-6.88 15.05-8.62 20-1.73 4.95-4.27 14.4-5.64 21-1.71 8.23-2.68 16.87-3.09 27.5-0.37 9.71-0.15 18.86 0.59 24.5 0.65 4.95 2.25 13.27 3.56 18.5 1.3 5.23 4.24 14.23 6.52 20 2.29 5.77 6.11 14.1 8.5 18.5 2.39 4.4 7.19 12.01 10.67 16.92 3.49 4.91 10.84 13.63 16.34 19.39 5.5 5.76 13.6 13.36 18 16.89 4.4 3.54 11.82 8.81 16.5 11.72 4.68 2.91 12.1 7.09 16.5 9.29 4.4 2.2 12.27 5.62 17.5 7.6 5.23 1.98 13.55 4.74 18.5 6.12 4.95 1.38 14.4 3.53 21 4.77 10.46 1.96 15.2 2.25 37 2.22 22.89-0.03 26.14-0.25 38.5-2.67 7.42-1.46 18.45-4.25 24.5-6.21 6.05-1.96 17.3-6.66 25-10.45 7.7-3.79 17.6-9.25 22-12.13 4.4-2.88 10.02-6.85 12.5-8.83 2.48-1.97 8.07-6.74 12.42-10.61 4.36-3.86 11.31-11.07 15.43-16.02 4.13-4.95 10.17-13.05 13.43-18 3.25-4.95 7.84-13.05 10.19-18 2.36-4.95 5.45-12.6 6.88-17 1.43-4.4 3.51-11.82 4.61-16.5 1.1-4.68 2.5-13.9 3.1-20.5 0.79-8.64 0.79-15.57 0.02-24.75-0.59-7.01-1.98-16.91-3.08-22-1.1-5.09-3.4-13.52-5.12-18.75-1.71-5.23-5.01-13.55-7.32-18.5-2.32-4.95-6.74-13.05-9.82-18-3.09-4.95-8.51-12.6-12.05-17-3.54-4.4-10.32-11.71-15.07-16.25-4.74-4.54-13.32-11.74-19.06-16-5.74-4.26-15.3-10.44-21.25-13.74-5.95-3.29-14.86-7.64-19.81-9.67-4.95-2.03-14.4-5.32-21-7.31-6.6-2-17.4-4.54-24-5.65-8.06-1.37-18.07-2.15-30.5-2.39-10.18-0.2-22.1 0.07-26.5 0.61zm-316.5 164.87c-3.57 0.46-9.43 1.59-13 2.53-3.57 0.93-9.2 2.92-12.5 4.41-3.3 1.49-8.93 4.69-12.5 7.11-3.57 2.42-8.46 6.22-10.86 8.44-2.4 2.22-6.53 6.97-9.18 10.54-2.65 3.57-6.61 10.32-8.79 15-2.18 4.68-4.65 11.65-5.49 15.5-0.84 3.85-1.83 9.93-2.2 13.5-0.37 3.57-0.16 10.77 0.47 16 0.63 5.23 2.48 13.44 4.1 18.25 1.62 4.81 4.69 12.24 6.82 16.5 2.13 4.26 6.6 11.35 9.93 15.75 3.33 4.4 9.12 11 12.87 14.67 3.76 3.67 11.11 9.86 16.33 13.75 5.22 3.89 14.68 9.75 21 13.02 6.32 3.26 15.55 7.49 20.5 9.4 4.95 1.91 14.63 4.92 21.5 6.69 6.87 1.77 13.74 3.84 15.25 4.6 1.51 0.75 3.65 2.83 4.75 4.62 1.09 1.79 1.99 4.83 1.99 6.75 0 1.92-0.9 4.96-1.99 6.75-1.39 2.26-4.06 4.19-8.75 6.34-3.71 1.71-8.78 4.5-11.25 6.2-2.47 1.71-7.16 5.6-10.4 8.66-3.25 3.05-8.11 8.92-10.81 13.05-2.69 4.12-5.83 10.42-6.96 14-1.23 3.88-2.26 10.53-2.56 16.5-0.38 7.36-0.08 11.72 1.13 16.5 0.9 3.58 3.05 9.42 4.78 13 2.1 4.32 5.53 8.88 10.24 13.58 4.7 4.71 9.26 8.14 13.58 10.24 3.57 1.73 9.43 3.92 13 4.87 4.5 1.2 10.03 1.7 18 1.64 9.33-0.08 13.15-0.59 20.25-2.71 4.81-1.44 12.01-4.25 16-6.25 3.99-1.99 11.3-6.25 16.25-9.46l9-5.84c-2.64-14.39-3.94-23.97-4.59-30.57-0.73-7.42-0.94-18.49-0.56-29 0.34-9.35 1.31-21.5 2.15-27 0.83-5.5 2.91-15.63 4.61-22.5 1.7-6.88 4.9-17.45 7.12-23.5 2.21-6.05 6.73-16.4 10.03-23 3.3-6.6 9.09-16.84 12.87-22.75l6.87-10.75c-12.11-15.89-18.27-25-21.52-30.5-3.24-5.5-7.8-14.5-10.13-20-2.33-5.5-5.73-14.85-7.54-20.79l-3.31-10.78c-18.6-15.23-28.5-22.61-34-26.22-5.5-3.62-15.62-9.26-22.5-12.55-6.87-3.29-17-7.35-22.5-9.02-5.5-1.68-12.7-3.5-16-4.05-3.3-0.56-10.28-1.22-15.5-1.48-5.22-0.25-12.43-0.09-16 0.36zm653.5 0.69c-1.65 0.26-6.37 1.32-10.5 2.35-4.12 1.03-10.87 3.09-15 4.56-4.12 1.48-12.67 5.27-19 8.44-6.33 3.16-15.55 8.47-20.5 11.8-4.95 3.34-11.97 8.45-15.59 11.38-3.63 2.92-8.87 7.33-11.64 9.81-4.8 4.28-5.27 5.16-9.52 18-2.46 7.43-6.66 18-9.35 23.5-2.68 5.5-7.29 13.82-10.24 18.5-2.95 4.68-8.32 12.33-11.94 17-6.15 7.96-6.48 8.64-5.15 10.7 0.79 1.21 4.4 7.06 8.04 13 3.64 5.94 8.25 14.06 10.25 18.05 2 3.99 5.48 11.86 7.73 17.5 2.25 5.64 5.59 15.42 7.41 21.75 1.82 6.33 4.45 18.25 5.84 26.5 1.39 8.25 2.82 20.85 3.19 28 0.39 7.52 0.19 18.91-0.47 27-0.63 7.7-2.08 18.73-3.23 24.5l-2.09 10.5c4.72 3.87 9.61 7.13 13.92 9.74 4.31 2.6 11.67 6.29 16.34 8.2 4.67 1.91 11.42 4.25 15 5.2 4.15 1.11 10.3 1.75 17 1.77 6.87 0.02 12.74-0.57 17-1.7 3.58-0.95 9.88-3.39 14-5.41 5.15-2.53 9.55-5.74 14.05-10.24 4.17-4.17 7.71-8.93 9.73-13.06 1.75-3.58 3.86-9.2 4.7-12.5 0.84-3.3 1.52-9.6 1.51-14-0.01-4.4-0.71-10.92-1.55-14.5-0.84-3.58-3.19-9.84-5.23-13.92-2.1-4.19-6.32-10.23-9.71-13.9-3.3-3.56-8.7-8.4-12-10.76-3.3-2.35-9.37-5.83-13.5-7.73-4.12-1.9-8.46-4.52-9.64-5.82-1.17-1.3-2.41-3.38-2.75-4.62-0.33-1.24-0.16-4.05 0.39-6.25 0.57-2.28 2.18-4.97 3.75-6.26 1.73-1.43 7.57-3.51 15.75-5.61 7.15-1.84 17.27-4.92 22.5-6.84 5.23-1.92 14.67-6.17 21-9.43 6.33-3.26 15.76-8.95 20.96-12.64 5.21-3.7 13.09-10.32 17.53-14.72 4.44-4.4 10.43-11.15 13.33-15 2.89-3.85 7.71-11.95 10.72-18 3-6.05 6.14-13.7 6.98-17 0.83-3.3 1.98-10.27 2.56-15.5 0.72-6.58 0.73-12.11 0.01-18-0.57-4.68-1.99-11.65-3.16-15.5-1.17-3.85-4.11-10.82-6.54-15.5-2.42-4.68-6.76-11.39-9.65-14.93-2.88-3.53-8.39-8.85-12.24-11.8-3.85-2.96-10.6-7.12-15-9.26-4.4-2.13-10.7-4.63-14-5.55-4.21-1.17-10.93-1.76-22.5-1.97-9.08-0.17-17.85-0.09-19.5 0.17zm-470.64 166.61c-3.65 6.18-7.53 13.03-8.63 15.23-1.09 2.2-4.07 9.29-6.61 15.75-2.54 6.46-4.62 11.98-4.62 12.25 0 0.27 3.94 2.36 8.75 4.64 4.81 2.28 14.6 6.49 21.75 9.37 7.15 2.87 19.3 7.27 27 9.78 7.7 2.5 21.2 6.16 30 8.12 8.8 1.95 21.85 4.44 29 5.53 7.15 1.08 18.4 2.44 25 3.01 6.6 0.56 23.36 1.03 37.25 1.04 13.89 0.01 30.76-0.47 37.5-1.06 6.74-0.58 18.77-2.15 26.75-3.47 7.98-1.32 20.35-3.74 27.5-5.36 7.15-1.63 18.4-4.6 25-6.61 6.6-2 16.27-5.24 21.5-7.2 5.23-1.95 15.8-6.42 23.5-9.94 7.7-3.52 14.45-6.85 15-7.41q1-1.01-1.35-7.73c-1.29-3.69-4.7-11.66-7.57-17.71-2.88-6.05-7.78-15.16-10.9-20.25l-5.68-9.25c-5.81 4.13-9.3 6.75-11.5 8.49-2.2 1.74-7.38 5.43-11.5 8.19-4.13 2.77-11.55 7.32-16.5 10.12-4.95 2.79-13.95 7.16-20 9.71-6.05 2.55-15.95 6.14-22 7.98-6.05 1.84-15.73 4.32-21.5 5.51-5.77 1.19-16.13 2.8-23 3.57-6.88 0.78-17.9 1.41-24.5 1.41-6.6 0-17.18-0.44-23.5-0.99-6.33-0.54-16.23-1.88-22-2.96-5.77-1.09-14.55-3.13-19.5-4.55-4.95-1.42-13.5-4.23-19-6.24-5.5-2.02-15.4-6.4-22-9.74-6.6-3.33-16.05-8.7-21-11.91-4.95-3.22-12.71-8.72-17.25-12.22-4.54-3.5-8.36-6.36-8.5-6.35-0.14 0.01-3.24 5.08-6.89 11.25zm-28.39 96.98c-0.39 6.19-0.41 15.75-0.03 21.25 0.37 5.5 0.87 11.46 1.12 13.25 0.38 2.8 1.23 3.64 6.19 6.11 3.16 1.57 11.37 5.14 18.25 7.92 6.87 2.78 17.9 6.84 24.5 9.01 6.6 2.18 19.2 5.81 28 8.06 8.8 2.25 20.5 5.01 26 6.14 5.5 1.13 16.75 2.92 25 3.98 8.25 1.06 21.98 2.46 30.5 3.11 9.62 0.74 24.61 0.96 39.5 0.6 13.2-0.32 28.5-1.07 34-1.66 5.5-0.6 17.65-2.41 27-4.03 9.35-1.63 22.4-4.28 29-5.91 6.6-1.62 17.4-4.58 24-6.58 6.6-2.01 18.52-6.15 26.5-9.22 7.98-3.07 18.66-7.53 23.75-9.93l9.25-4.35c1.14-7.36 1.48-18.13 1.49-28.67 0-10.54-0.32-19.54-0.73-20-0.41-0.46-5.81 1.51-12 4.36-6.19 2.85-13.74 6.16-16.76 7.35-3.02 1.18-11.13 4.12-18 6.52-6.88 2.41-19.02 6.15-27 8.32-7.98 2.17-20.35 5.15-27.5 6.61-7.15 1.46-19.08 3.51-26.5 4.55-7.42 1.04-22.05 2.41-32.5 3.04-10.93 0.66-26.22 0.86-36 0.48-9.35-0.37-23.75-1.31-32-2.09-8.25-0.78-21.52-2.52-29.5-3.87-7.98-1.35-20.35-3.81-27.5-5.47-7.15-1.66-17.5-4.32-23-5.92-5.5-1.59-16.52-5.26-24.5-8.16-7.98-2.9-19.9-7.7-26.5-10.66-6.6-2.97-12.3-5.4-12.66-5.4-0.36 0.01-0.98 5.07-1.37 11.26zm13.36 86.36c0.09 0.22 2.89 6.13 6.22 13.14 3.33 7.01 9.39 17.7 13.46 23.75 4.07 6.05 10.9 14.94 15.19 19.75 4.29 4.81 11.4 11.91 15.8 15.78 4.4 3.86 11.82 9.75 16.5 13.08 4.67 3.33 12.32 8.14 17 10.68 4.67 2.55 13.45 6.58 19.5 8.96 6.05 2.38 15.05 5.41 20 6.74 4.95 1.33 13.73 3.11 19.5 3.95 6.64 0.98 17.76 1.54 30.25 1.55 12.64 0.01 23.44-0.54 30-1.52 5.64-0.84 14.75-2.7 20.25-4.14 5.5-1.43 13.37-3.93 17.5-5.54 4.12-1.62 12.67-5.63 19-8.9 6.33-3.28 15.77-8.98 21-12.66 5.23-3.69 15.18-12.34 22.12-19.22 6.95-6.88 15.44-16.34 18.87-21.01 3.44-4.67 8.59-12.55 11.47-17.5 2.87-4.95 6.75-12.48 8.63-16.73 1.88-4.24 3.18-7.94 2.91-8.21-0.27-0.27-5.23 1.46-11 3.84-5.77 2.37-16.58 6.43-24 9.01-7.42 2.58-20.7 6.46-29.5 8.63-8.8 2.17-22.52 5.04-30.5 6.39-7.98 1.35-21.25 3.22-29.5 4.16-10.82 1.23-23.36 1.71-45 1.72-21.76 0.02-34.26-0.45-45.5-1.69-8.52-0.95-22.02-2.83-30-4.18-7.98-1.36-21.02-4.08-29-6.04-7.98-1.97-23.05-6.41-33.5-9.88-10.45-3.46-23.24-8.1-28.42-10.3-5.18-2.2-9.35-3.82-9.25-3.61z"/>
		<path id="Path 3" class="s1" d="m415.5 342.33c-2.8 1.3-6.66 4.26-8.78 6.74-2.07 2.44-4.49 6.68-5.37 9.43-1.06 3.28-1.47 7.23-1.19 11.5 0.27 4.25 1.26 8.19 2.87 11.39 1.36 2.69 4.27 6.41 6.47 8.27 2.2 1.86 6.02 4.05 8.5 4.87 2.48 0.82 6.41 1.49 8.75 1.48 2.34 0 6.61-0.88 9.5-1.94 3.77-1.38 6.61-3.43 10.04-7.25 2.66-2.94 5.45-7.33 6.26-9.82 0.81-2.48 1.47-6.75 1.47-9.5-0.01-2.75-0.8-7.19-1.77-9.87-0.96-2.68-3.32-6.69-5.25-8.92-1.93-2.24-5.75-5.1-8.5-6.38-3.61-1.67-6.81-2.31-11.5-2.31-4.69 0-7.89 0.64-11.5 2.31zm169 0.08c-2.75 1.33-6.54 4.15-8.43 6.26-1.88 2.11-4.33 5.85-5.43 8.33-1.34 3.01-2.01 6.65-2.01 11 0 4.38 0.66 7.97 2.03 11 1.11 2.48 3.33 6.02 4.93 7.89 1.6 1.86 4.93 4.53 7.41 5.94 3.13 1.77 6.47 2.68 11 2.99 5.29 0.35 7.51-0.01 11.92-1.94 3.25-1.43 7.05-4.2 9.5-6.93 2.58-2.88 4.77-6.73 5.97-10.5 1.32-4.15 1.74-7.61 1.38-11.45-0.28-3.02-1.41-7.3-2.52-9.5-1.1-2.2-3.3-5.54-4.88-7.42-1.58-1.88-5.12-4.47-7.87-5.74-3.58-1.66-6.84-2.33-11.5-2.34-4.88-0.02-7.75 0.58-11.5 2.41zm-143.48 88.28c-1.91 1-4.51 3.39-5.78 5.31-1.62 2.48-2.3 4.96-2.29 8.5 0 3.71 0.9 6.81 3.49 12 1.92 3.85 5.42 9.34 7.78 12.19 2.35 2.86 6.53 7.14 9.29 9.5 2.75 2.37 7.7 5.98 11 8.01 3.29 2.04 9.59 5.04 13.99 6.66 4.4 1.63 11.82 3.73 16.5 4.68 6.52 1.32 11.29 1.59 20.5 1.16 7.31-0.35 14.93-1.37 19.5-2.62 4.12-1.13 10.87-3.67 15-5.64 4.12-1.98 10.2-5.52 13.5-7.87 3.3-2.35 8.85-7.38 12.33-11.17 3.62-3.94 7.8-9.9 9.75-13.9 1.89-3.85 3.68-9.02 3.99-11.5 0.44-3.51 0.05-5.49-1.76-8.99-1.8-3.5-3.3-4.91-6.81-6.37-2.99-1.25-5.68-1.69-8-1.29-1.92 0.32-5.08 1.63-7 2.91-2.71 1.78-4.17 4.01-6.45 9.78-2.3 5.84-4.26 8.78-9 13.53-3.35 3.36-8.5 7.25-11.55 8.72-3.02 1.46-8.2 3.34-11.5 4.18-3.37 0.87-10.16 1.53-15.5 1.52-5.23-0.01-12.31-0.69-15.75-1.5-3.44-0.82-8.61-2.67-11.5-4.11-2.89-1.44-7.23-4.25-9.66-6.25-2.43-2-5.61-5.43-7.07-7.63-1.47-2.2-3.76-6.67-5.09-9.92-1.42-3.47-3.67-6.89-5.43-8.24-1.78-1.37-5.03-2.54-8-2.88-3.74-0.43-5.88-0.12-8.48 1.23z"/>
	</g>
</svg>