<svg version="1.2" xmlns="http://www.w3.org/2000/svg" viewBox="0 0 1000 1000" width="1000" height="1000">
	<style>
		.s0 { fill: #33b6f1 } 
		.s1 { opacity: 1;fill: #05222e } 
		.s2 { opacity: 1;fill: #34b7f1 } 
	</style>
	<path id="Path 0" class="s0" d="m0 500v500h1000v-1000h-1000z"/>
	<g id="Glove">
		<path id="Path 1" fill-rule="evenodd" class="s1" d="m500 58.97c4.4 0.74 11.38 2.35 15.5 3.59 4.13 1.24 10.2 3.61 13.5 5.27 3.3 1.65 8.93 4.91 12.5 7.23 3.58 2.33 9.3 6.88 12.73 10.12 3.43 3.25 6.51 7.03 6.84 8.4 0.44 1.78-0.06 3.33-1.73 5.36-1.66 2.02-3.21 2.84-5.34 2.8-2.24-0.04-4.4-1.42-8.5-5.41-3.02-2.94-7.52-6.73-10-8.42-2.47-1.68-7.65-4.65-11.5-6.58-3.85-1.93-10.15-4.45-14-5.59-3.85-1.14-11.05-2.58-16-3.19-6.62-0.82-11.51-0.82-18.5 0-5.22 0.61-12.65 2.04-16.5 3.17-3.85 1.14-10.6 3.93-14.99 6.21-4.4 2.29-10.25 5.9-13 8.04-2.76 2.14-6.81 5.65-9.01 7.79-3.3 3.22-4.6 3.86-7.4 3.61-2.32-0.19-4.07-1.16-5.5-3.04-2.04-2.67-2.05-2.85-0.35-6.25 0.96-1.92 5.01-6.18 9-9.45 3.99-3.28 10.18-7.68 13.75-9.79 3.58-2.12 9.43-5.13 13-6.69 3.58-1.57 10.78-3.92 16-5.23 5.91-1.48 13.66-2.55 20.5-2.83 6.68-0.27 14.14 0.07 19 0.88zm-5 29.56c2.75 0.45 7.03 1.36 9.5 2.03 2.48 0.67 7.65 2.76 11.5 4.65 3.85 1.88 9.93 5.79 13.5 8.68 3.58 2.9 7.4 6.91 8.5 8.93l2 3.66c-3.56 4.75-5.23 5.69-7.6 5.87-2.88 0.24-4.16-0.46-8.4-4.56-2.75-2.66-7.92-6.46-11.5-8.44-3.57-1.99-9.2-4.41-12.5-5.38-3.9-1.15-9.33-1.77-15.5-1.77-6.26 0-11.55 0.61-15.5 1.8-3.3 0.99-8.47 3.04-11.5 4.56-3.02 1.52-7.97 5-11 7.73-3.02 2.73-6.4 5.43-7.5 5.99-1.1 0.57-3.09 0.76-4.42 0.42-1.33-0.34-3.05-1.52-3.82-2.62-0.91-1.28-1.18-3.08-0.76-5 0.36-1.67 2.73-5.01 5.33-7.54 2.57-2.49 7.26-6.21 10.42-8.25 3.16-2.04 7.44-4.43 9.5-5.31 2.06-0.88 6.45-2.39 9.75-3.37 3.3-0.98 10.28-2.02 15.5-2.33 5.23-0.3 11.75-0.19 14.5 0.25zm125 6.11c3.3 0.52 8.93 1.69 12.5 2.59 3.58 0.91 10.1 3.19 14.5 5.07 4.4 1.88 11.6 5.81 16 8.73 4.4 2.91 11.15 8.4 15 12.19 3.85 3.8 9.09 9.82 11.65 13.38 2.55 3.57 6.44 10.08 8.64 14.48 2.21 4.4 4.95 11.49 6.11 15.75 1.77 6.54 1.9 8.18 0.85 10.48-0.69 1.5-2.46 3.18-3.94 3.75-1.95 0.74-3.4 0.68-5.25-0.23-2-0.97-3.03-2.84-4.68-8.5-1.17-3.98-3.11-9.5-4.32-12.25-1.22-2.75-4.43-8.37-7.14-12.49-2.7-4.12-7.84-10.35-11.42-13.86-3.57-3.5-9.42-8.32-13-10.69-3.57-2.38-9.42-5.66-13-7.3-3.57-1.63-10.32-3.99-15-5.24-6.75-1.81-11.18-2.28-21.5-2.29-9.15-0.01-14.85 0.48-19.25 1.68-3.44 0.93-7.26 1.7-8.5 1.72-1.24 0.01-3.25-1-4.48-2.25-1.22-1.25-2.24-3.51-2.25-5.03-0.01-1.86 0.87-3.4 2.73-4.77 1.51-1.11 5.79-2.69 9.5-3.5 3.71-0.81 12.04-1.68 18.5-1.93 6.46-0.24 14.45-0.01 17.75 0.51zm-234 11.62c3.85 0.83 10.6 2.82 15 4.42 4.4 1.61 10.48 4.4 13.5 6.22 3.03 1.82 6.18 4.52 7 6 1.34 2.39 1.33 2.98-0.04 5.43-0.85 1.52-2.75 3.2-4.23 3.75-2.3 0.86-3.83 0.4-10.46-3.13-4.27-2.27-10.69-5.06-14.27-6.2-3.57-1.13-9.42-2.6-13-3.27-4.09-0.75-10.95-0.99-18.5-0.64-7.67 0.36-14.71 1.34-19.5 2.7-4.12 1.17-11.55 4.1-16.5 6.52-5.61 2.74-12.01 6.97-17 11.25-4.4 3.77-10.02 9.58-12.5 12.92-2.47 3.34-6.08 8.27-8.01 10.96-2.32 3.23-4.36 5-6 5.2-1.38 0.18-3.71-0.6-5.24-1.75-1.56-1.16-2.76-3.03-2.76-4.31-0.01-1.23 1.6-4.95 3.59-8.25 1.98-3.3 5.75-8.7 8.38-12 2.62-3.3 7.41-8.27 10.65-11.05 3.24-2.78 8.14-6.67 10.89-8.65 2.75-1.98 8.15-5.18 12-7.12 3.85-1.93 10.38-4.66 14.5-6.05 4.13-1.4 10.65-3 14.5-3.56 3.85-0.57 12.4-1 19-0.97 6.71 0.04 15.08 0.73 19 1.58zm106 15.92c1.1 0.27 4.7 1.43 8 2.59 3.3 1.16 8.89 3.95 12.43 6.21 3.54 2.26 8.84 6.8 11.78 10.1 2.95 3.3 6.91 9.15 8.8 13 1.9 3.85 4.16 10.15 5.03 14 0.86 3.85 1.85 13.08 2.19 20.5 0.58 12.5 0.71 13.21 1.81 9.5 0.65-2.2 2.66-6.92 4.46-10.5 2.04-4.06 5.74-8.95 9.88-13.04 4.06-4.01 9.13-7.79 13.12-9.77 3.58-1.77 8.98-3.89 12-4.69 3.03-0.81 8.88-1.47 13-1.46 5.1 0.01 9.59 0.73 14.03 2.24 3.6 1.22 9.15 3.8 12.35 5.72 3.19 1.93 8.8 6.65 12.46 10.5 3.91 4.11 7.98 9.69 9.86 13.5 1.76 3.58 4.01 9.43 5 13 1.7 6.14 1.8 15.19 1.76 161l-0.03 154.5c8.71-14.72 15.65-26.42 21.03-35.5 5.38-9.07 11.26-18.75 13.06-21.5 1.8-2.75 6.13-7.65 9.63-10.88 3.49-3.24 8.49-6.96 11.1-8.25 2.61-1.3 7.34-3.04 10.5-3.87 3.16-0.83 8-1.51 10.75-1.51 2.75-0.01 7.48 0.45 10.5 1.01 3.03 0.56 8.43 2.44 12 4.18 4.06 1.98 8.75 5.45 12.5 9.25 3.31 3.34 7.1 8.32 8.43 11.07 1.33 2.75 3.01 7.25 3.73 10 0.73 2.75 1.32 8.04 1.33 11.75 0 3.72-0.7 10.24-1.56 14.5-0.93 4.59-6.99 21.41-14.86 41.25-7.31 18.43-18.83 47.45-25.6 64.5-6.77 17.05-15.84 38.88-20.15 48.5-4.32 9.63-10.81 22.68-14.44 29-3.63 6.33-10.33 17.13-14.9 24-4.56 6.88-13.49 19.93-19.84 29-6.34 9.08-13.83 21-16.63 26.5-2.8 5.5-5.96 13.15-7.04 17-1.07 3.85-2.24 10.15-2.59 14l-0.64 7c6.01 1.9 9.45 3.81 11.51 5.47 2.28 1.84 5.03 5.68 7 9.76l3.25 6.73c0.46 64.23 0.17 80.92-0.48 84.04-0.57 2.75-2.3 7.7-3.85 11-1.54 3.3-4.57 7.99-6.73 10.42-2.17 2.42-6.19 5.83-8.94 7.56-2.75 1.73-7.25 4.02-10 5.09-4.87 1.88-9.17 1.93-165 1.93h-160c-8.53-3.4-13.81-6.43-17.25-8.94-3.66-2.67-7.86-6.94-10.14-10.31-2.14-3.16-4.94-8.67-6.24-12.25-2.31-6.41-2.35-7.04-2.36-46.5l-0.01-40c3.94-9.73 6.58-13.7 9.43-16.52 2.61-2.58 6.45-5.15 8.96-6l4.39-1.48c-0.96-10.85-2.18-17.37-3.33-21.5-1.15-4.12-4.81-13.35-8.14-20.5-3.32-7.15-8.04-17.72-10.49-23.5-2.45-5.77-6.19-15.67-8.31-22-2.12-6.32-4.99-16-6.37-21.5-1.39-5.5-3.66-16.3-5.05-24-1.39-7.7-3.2-20.07-4.03-27.5-0.82-7.42-2.19-26.32-3.04-42-0.85-15.67-2.66-50.1-4.01-76.5-1.36-26.4-3.37-66.9-4.46-90-1.09-23.1-2.73-57.52-3.63-76.5-0.9-18.97-1.4-37.65-1.1-41.5 0.29-3.85 1.45-9.92 2.56-13.5 1.11-3.57 3.76-9.2 5.87-12.5 2.12-3.3 6.08-8.16 8.8-10.8 2.73-2.64 8.31-6.44 12.45-8.46 6.66-3.25 8.56-3.71 17-4.1 7.62-0.34 10.89-0.02 16.5 1.65 4.45 1.32 9.28 3.74 13.25 6.64 3.44 2.52 8.16 7.04 10.5 10.06l4.25 5.49c0.98-64.51 1.4-72.35 2.65-75.98 0.86-2.47 2.75-6.97 4.19-10 1.44-3.02 4.79-8.2 7.44-11.5 2.65-3.3 7.04-7.68 9.77-9.73 2.72-2.05 6.98-4.84 9.45-6.19 2.48-1.35 7.2-3.16 10.5-4.02 3.3-0.86 8.93-1.57 12.5-1.57 3.58 0 9.09 0.68 12.25 1.51 3.16 0.83 7.66 2.45 10 3.62 2.34 1.16 6.67 3.97 9.62 6.25 2.96 2.27 7.01 6.38 9 9.13 1.99 2.75 4.81 7.25 6.27 10l2.66 5c0.2-21.7 0.87-30.92 1.63-34.5 0.75-3.57 2.45-8.97 3.78-12 1.32-3.02 3.94-7.75 5.82-10.5 1.87-2.75 5.45-6.98 7.94-9.41 2.49-2.43 7.01-5.99 10.03-7.91 3.03-1.93 7.98-4.36 11-5.41 3.39-1.18 9.15-2.06 15-2.29 5.23-0.21 10.4-0.16 11.5 0.12zm125 2.4c2.75 0.41 7.48 1.5 10.5 2.41 3.03 0.92 7.53 2.64 10 3.84 2.48 1.19 7.2 4.03 10.5 6.32 3.3 2.28 8.42 6.8 11.37 10.04 2.96 3.24 6.8 8.37 8.55 11.39 1.74 3.03 4.21 7.98 5.48 11 1.27 3.03 2.55 7.53 2.85 10 0.47 3.85 0.2 4.83-1.85 6.77-1.32 1.25-3.52 2.28-4.9 2.29-1.37 0-3.26-0.79-4.2-1.77-0.93-0.98-2.6-4.71-3.71-8.29-1.11-3.57-3.64-9.2-5.62-12.5-1.98-3.3-5.25-7.73-7.28-9.86-2.03-2.12-5.94-5.52-8.69-7.55-2.75-2.03-7.25-4.65-10-5.83-2.75-1.17-7.92-2.83-11.5-3.68-3.57-0.85-8.75-1.56-11.5-1.57-2.75-0.02-7.47 0.5-10.5 1.14-3.02 0.65-7.25 1.21-9.38 1.26-3.09 0.07-4.31-0.46-6-2.62-1.97-2.52-2.01-2.93-0.62-5.79 0.95-1.95 2.87-3.61 5.25-4.53 2.06-0.81 6.56-1.91 10-2.46 3.44-0.55 8.5-0.94 11.25-0.87 2.75 0.06 7.25 0.45 10 0.86zm-239 10.68c1.1 0.25 4.93 1.38 8.5 2.52 3.58 1.15 8.3 2.97 10.5 4.05 2.2 1.09 5.25 3.16 6.77 4.61 1.53 1.46 2.78 3.54 2.79 4.64 0 1.1-0.91 3.24-2.03 4.75-1.11 1.52-2.93 2.75-4.03 2.75-1.1 0-5.04-1.53-8.75-3.4-3.71-1.86-9.67-4.16-13.25-5.11-4.92-1.29-9.06-1.59-17-1.24-8.63 0.39-11.75 1-17.5 3.39-3.85 1.59-9.92 4.96-13.5 7.47-3.65 2.57-8.47 7.22-11 10.61-2.47 3.32-5.29 7.44-6.25 9.16-1.06 1.89-2.84 3.36-4.5 3.73-1.91 0.42-3.51 0.01-5.25-1.35-1.37-1.08-2.61-3.15-2.75-4.61-0.14-1.45 0.99-5.01 2.5-7.9 1.51-2.88 6.57-9.09 11.25-13.78 6.3-6.33 10.57-9.62 16.5-12.7 4.4-2.3 11.6-5.1 16-6.23 5.85-1.51 10.82-2.03 18.5-1.93 5.78 0.07 11.4 0.33 12.5 0.57zm-98 65.31c3.85 0.43 9.03 1.31 11.5 1.94 2.48 0.64 5.63 1.58 7 2.09 1.38 0.51 3.1 2.17 3.83 3.7 0.74 1.53 1.08 3.8 0.75 5.03-0.32 1.24-1.59 2.94-2.83 3.78-2.03 1.39-2.88 1.37-8.75-0.23-5.03-1.38-10.23-1.77-23-1.74-15.36 0.04-17.09 0.24-25 2.86-4.67 1.55-11.2 4.17-14.5 5.83-3.3 1.66-8.02 4.4-10.5 6.08-2.47 1.68-7.36 5.78-10.86 9.12-3.5 3.33-8.29 8.75-10.63 12.05-2.35 3.3-5.53 8.48-7.06 11.5-1.54 3.03-4.18 9.54-5.87 14.48-2.49 7.25-3.56 9.15-5.58 9.89-1.37 0.5-3.74 0.62-5.25 0.27-1.57-0.36-3.29-1.75-4-3.22-1.06-2.19-0.9-3.74 1.07-10.25 1.28-4.22 4-11.04 6.06-15.17 2.05-4.12 5.69-10.42 8.09-14 2.39-3.57 7.99-10.11 12.44-14.53 4.45-4.42 11.69-10.39 16.09-13.27 4.4-2.88 11.38-6.63 15.5-8.34 4.13-1.71 11.55-4.13 16.5-5.37 4.95-1.24 13.28-2.49 18.5-2.77 5.23-0.29 12.65-0.17 16.5 0.27zm3.5 31.39c3.03 0.67 6.51 1.76 7.75 2.42 1.24 0.66 2.52 2.44 2.86 3.95 0.33 1.52 0.37 3.65 0.08 4.75-0.29 1.1-1.8 2.58-3.36 3.29-2.35 1.06-3.94 1.02-9.33-0.24-3.57-0.83-9.87-1.52-14-1.51-4.12 0-9.97 0.65-13 1.44-3.02 0.79-7.75 2.42-10.5 3.62-2.75 1.21-7.68 4.27-10.95 6.8-3.28 2.53-7.72 6.85-9.87 9.6-2.15 2.75-4.93 7.03-6.16 9.5-1.24 2.48-2.79 6.3-3.46 8.5-0.66 2.2-1.61 5.13-2.1 6.5-0.5 1.38-2.28 3.18-3.97 4-2.85 1.4-3.25 1.35-5.78-0.63-2.37-1.87-2.7-2.8-2.62-7.5 0.07-4.05 1.08-7.45 4.1-13.87 2.2-4.67 6.06-11.2 8.56-14.5 2.51-3.3 5.62-6.91 6.91-8.03 1.29-1.11 5.04-4.01 8.34-6.43 3.3-2.42 8.7-5.6 12-7.07 3.3-1.47 9.26-3.42 13.25-4.32 4.15-0.94 11.21-1.61 16.5-1.56 5.09 0.04 11.73 0.63 14.75 1.29zm463.5 145.68c3.3 0.52 8.93 1.69 12.5 2.59 3.58 0.91 10.1 3.19 14.5 5.07 4.4 1.88 11.6 5.81 16 8.73 4.4 2.91 11.15 8.4 15 12.19 3.85 3.8 9.09 9.82 11.65 13.38 2.55 3.57 6.44 10.08 8.64 14.48 2.21 4.4 4.95 11.49 6.11 15.75 1.77 6.54 1.9 8.18 0.85 10.48-0.69 1.5-2.46 3.18-3.94 3.75-1.95 0.74-3.4 0.68-5.25-0.23-2-0.97-3.03-2.84-4.68-8.5-1.17-3.98-3.11-9.5-4.32-12.25-1.22-2.75-4.43-8.37-7.14-12.49-2.7-4.12-7.84-10.35-11.42-13.86-3.57-3.5-9.42-8.32-13-10.69-3.57-2.38-9.42-5.66-13-7.3-3.57-1.63-10.32-3.99-15-5.24-6.75-1.81-11.18-2.28-21.5-2.29-9.15-0.01-14.85 0.48-19.25 1.68-3.44 0.93-7.26 1.7-8.5 1.72-1.24 0.01-3.25-1-4.48-2.25-1.22-1.25-2.24-3.51-2.25-5.03-0.01-1.86 0.87-3.4 2.73-4.77 1.51-1.11 5.79-2.69 9.5-3.5 3.71-0.81 12.04-1.68 18.5-1.93 6.46-0.24 14.45-0.01 17.75 0.51zm-3 29.94c2.75 0.41 7.48 1.5 10.5 2.41 3.03 0.92 7.53 2.64 10 3.84 2.48 1.19 7.2 4.03 10.5 6.32 3.3 2.28 8.42 6.8 11.37 10.04 2.96 3.24 6.8 8.37 8.55 11.39 1.74 3.03 4.21 7.98 5.48 11 1.27 3.03 2.55 7.53 2.85 10 0.47 3.85 0.2 4.83-1.85 6.77-1.32 1.25-3.52 2.28-4.9 2.29-1.37 0-3.26-0.79-4.2-1.77-0.93-0.98-2.6-4.71-3.71-8.29-1.11-3.57-3.64-9.2-5.62-12.5-1.98-3.3-5.25-7.73-7.28-9.86-2.03-2.12-5.94-5.52-8.69-7.55-2.75-2.03-7.25-4.65-10-5.83-2.75-1.17-7.92-2.83-11.5-3.68-3.57-0.85-8.75-1.56-11.5-1.57-2.75-0.02-7.47 0.5-10.5 1.14-3.02 0.65-7.25 1.21-9.38 1.26-3.09 0.07-4.31-0.46-6-2.62-1.97-2.52-2.01-2.93-0.62-5.79 0.95-1.95 2.87-3.61 5.25-4.53 2.06-0.81 6.56-1.91 10-2.46 3.44-0.55 8.5-0.94 11.25-0.87 2.75 0.06 7.25 0.45 10 0.86z"/>
		<path id="Path 2" class="s2" d="m489.69 152.46c1.49 0.45 3.96 1.5 5.5 2.34 1.55 0.84 4.98 3.94 7.64 6.9 3.65 4.07 5.27 6.97 6.67 11.88 1.66 5.84 1.96 13.45 2.94 74.5 0.6 37.4 1.54 90.28 2.1 117.5 0.55 27.23 1.45 51.19 1.98 53.25 0.54 2.07 2.22 5.18 3.73 6.92 1.51 1.75 4.55 3.99 6.75 4.98 2.2 1 5.35 1.81 7 1.81 1.65 0 4.8-0.81 7-1.81 2.2-0.99 5.24-3.23 6.75-4.98 1.51-1.74 3.21-4.85 3.76-6.92 0.56-2.06 2.13-18.82 3.49-37.25 1.36-18.42 4.06-57.57 5.99-87 1.93-29.42 3.89-59.8 4.37-67.5 0.7-11.47 1.3-14.99 3.31-19.5 1.34-3.02 4.22-7.47 6.39-9.87 2.17-2.41 6.08-5.44 8.69-6.75 3.36-1.68 6.43-2.37 10.5-2.37 4.47 0.01 6.87 0.65 10.75 2.85 2.75 1.56 6.7 4.82 8.79 7.24 2.08 2.42 4.78 6.88 6 9.9l2.21 5.5c0.5 340.25 0.53 342.56 2.5 346.5 1.26 2.52 3.58 4.92 6.25 6.48 2.88 1.68 5.79 2.49 9 2.5 2.61 0.01 5.99-0.61 7.5-1.39 1.51-0.78 4.15-2.92 5.86-4.75 1.7-1.84 4.46-5.36 6.12-7.84 1.66-2.47 9.87-15.75 18.25-29.5 8.38-13.75 18.43-30.17 22.34-36.5 3.92-6.32 8.77-13.3 10.78-15.5 2.02-2.2 5.63-5 8.04-6.22 2.43-1.25 6.23-2.24 8.61-2.25 2.34-0.02 5.94 0.83 8 1.88 2.06 1.04 4.74 2.95 5.94 4.25 1.21 1.29 2.9 4.03 3.75 6.09 0.87 2.09 1.56 6.64 1.56 10.25 0 4.38-0.77 8.55-2.34 12.75-1.29 3.44-11.69 29.2-23.1 57.25-11.41 28.05-24.15 59.33-28.3 69.5-4.16 10.18-9.67 23-12.24 28.5-2.57 5.5-7.19 14.05-10.26 19-3.07 4.95-11.31 17.1-18.33 27-7.01 9.9-15.22 21.83-18.25 26.5-3.02 4.68-8.1 13.45-11.28 19.5-3.18 6.05-7.13 15.05-8.78 20-1.65 4.95-3.45 11.93-4.01 15.5-0.56 3.58-1.26 8.64-1.56 11.25l-0.55 4.75-288.5 0.01c-2.1-15.12-3.36-21.98-4.15-25.01-0.79-3.02-3.39-10.22-5.79-16-2.39-5.77-7.51-17.7-11.37-26.5-3.86-8.8-9.12-22.3-11.69-30-2.57-7.7-5.99-19.4-7.6-26-1.6-6.6-3.79-18.07-4.85-25.5-1.06-7.42-2.63-24.97-3.48-39-0.85-14.02-2-33.6-2.57-43.5-0.56-9.9-2.13-40.27-3.49-67.5-1.35-27.22-3.13-63.9-3.96-81.5-0.83-17.6-1.76-38.3-2.06-46-0.31-7.7-1.04-23.45-1.63-35-0.93-18.07-0.87-21.76 0.45-26.5 0.84-3.02 3.05-7.52 4.91-10 1.86-2.47 5.16-5.5 7.33-6.72 2.17-1.22 5.98-2.5 8.45-2.85 3.19-0.44 5.81-0.11 9 1.16 2.48 0.98 6.67 3.84 9.33 6.35 2.65 2.51 5.93 6.81 7.28 9.56 1.86 3.79 2.8 8.27 3.89 18.5 0.79 7.43 3.49 34.43 5.99 60 2.5 25.58 4.99 48.19 5.53 50.25 0.54 2.07 2.67 5.61 4.73 7.89 3.45 3.8 4.23 4.17 9.75 4.58 5.12 0.39 6.51 0.11 9.5-1.92 1.93-1.3 4.59-4.38 5.91-6.84l2.41-4.46c-1.87-68.97-2.68-115.77-3-148.5-0.54-53.67-0.43-60.13 1.08-66 0.92-3.57 2.72-8.07 4-10 1.28-1.92 3.63-4.78 5.21-6.36 1.59-1.57 4.58-3.71 6.64-4.75 2.06-1.04 5.66-2.16 8-2.49 2.34-0.33 6.28-0.05 8.75 0.62 2.48 0.68 6.19 2.3 8.25 3.61 2.06 1.3 5.31 4.51 7.22 7.12 1.91 2.62 4.19 6.78 5.08 9.25 1.08 3.02 1.89 10.44 2.47 22.5 0.48 9.9 2.7 46.8 4.95 82 2.25 35.2 4.72 71.88 5.5 81.5 1.33 16.49 1.58 17.73 4.22 21.4 1.55 2.14 4.39 4.73 6.31 5.75 1.93 1.02 5.3 1.86 7.5 1.87 2.2 0 6-1.02 8.44-2.26 2.44-1.24 5.37-3.53 6.5-5.08 1.95-2.67 2.1-4.73 2.84-38.5 0.43-19.62 1.35-75.73 2.04-124.68 1.2-85.8 1.32-89.16 3.27-93.5 1.12-2.47 3.8-6.46 5.97-8.87 2.17-2.4 5.97-5.52 8.44-6.93 3.15-1.79 6.3-2.65 10.5-2.85 3.3-0.16 7.21 0.08 8.69 0.53zm137.38 675.14c1.13 0.49 2.39 1.93 2.79 3.19 0.4 1.26 0.59 18.08 0.43 37.37l-0.29 35.08c-4.65 5.99-7.8 8.53-10 9.51-3.78 1.69-12.27 1.79-157.5 1.79h-153.5c-6.72-3.92-9.54-6.74-10.98-9.21l-2.48-4.25c-0.12-67.69 0.03-71.14 1.57-72.5 1.49-1.32 21.43-1.52 164.79-1.69 95.08-0.11 163.96 0.18 165.17 0.71z"/>
	</g>
</svg>