<svg version="1.2" xmlns="http://www.w3.org/2000/svg" viewBox="0 0 456 456" width="456" height="456">
	<style>
		tspan { white-space:pre } 
		.s0 { fill: #001826 } 
		.s1 { fill: #2bb3ee } 
	</style>
	<g id="Background">
		<path id="Path 1" class="s0" d="m173.38 101.61c-0.74 0.21-1.94 0.73-2.68 1.15-0.73 0.43-1.77 1.26-2.3 1.85-0.53 0.59-1.22 1.58-1.53 2.19-0.31 0.61-0.7 1.85-0.87 2.75-0.2 1-0.22 2.26-0.07 3.26 0.14 0.9 0.59 2.3 0.99 3.12 0.41 0.82 1.4 2.1 2.19 2.84 0.88 0.83 2.14 1.62 3.23 2.04 1.45 0.55 2.16 0.64 3.86 0.52 1.65-0.12 2.56-0.39 4.45-1.35l2.37-1.2c1.84 0.96 3.11 1.74 4.01 2.35 0.9 0.61 2.67 2.19 3.93 3.52 1.27 1.33 2.93 3.38 3.7 4.56 0.77 1.19 1.82 3.09 2.34 4.24 0.52 1.14 1.3 3.14 1.72 4.45 0.43 1.3 0.75 2.39 0.71 2.41-0.05 0.02-1.48 0.75-3.2 1.63-1.71 0.87-4.38 2.44-5.93 3.48-1.55 1.04-4.03 2.86-5.5 4.05-1.46 1.19-3.81 3.35-5.21 4.8-1.4 1.44-3.63 4.1-4.96 5.89-1.34 1.8-3.14 4.54-4.02 6.09-0.87 1.55-2.2 4.22-2.95 5.94-0.75 1.71-1.77 4.42-2.28 6.01-0.5 1.59-1.23 4.66-1.63 6.83-0.4 2.16-0.83 5.3-0.96 6.98-0.14 1.67-0.28 3.04-0.33 3.04-0.04 0-0.57-0.38-1.18-0.85-0.61-0.47-2.39-1.61-3.94-2.55-1.55-0.93-4.09-2.31-5.64-3.05-1.55-0.75-4.35-1.86-6.23-2.48-1.88-0.61-4.88-1.4-6.68-1.74-1.8-0.35-4.8-0.71-6.68-0.81-2.05-0.11-4.66-0.04-6.53 0.18-1.72 0.2-4.25 0.7-5.64 1.1-1.39 0.4-3.86 1.37-5.49 2.15-1.64 0.78-4.04 2.22-5.35 3.2-1.3 0.98-3.31 2.77-4.46 3.98-1.15 1.21-2.63 3-3.3 3.98-0.67 0.98-1.68 2.72-2.26 3.86-0.57 1.15-1.39 3.15-1.82 4.46-0.43 1.3-0.98 3.71-1.22 5.34-0.24 1.63-0.44 3.84-0.44 4.9-0.01 1.06 0.13 3.06 0.3 4.45 0.17 1.39 0.65 3.79 1.06 5.35 0.4 1.55 1.3 4.09 1.98 5.64 0.69 1.55 2.18 4.22 3.32 5.93 1.25 1.89 3.37 4.46 5.35 6.5 1.8 1.86 4.63 4.39 6.28 5.64 1.65 1.24 4.46 3.09 6.23 4.1 1.78 1.01 4.23 2.25 5.46 2.76 1.22 0.5 2.56 1.05 2.97 1.21l0.74 0.29c-2.56 2.64-3.84 4.2-4.5 5.18-0.67 0.98-1.51 2.39-1.89 3.12-0.37 0.74-0.99 2.27-1.38 3.41-0.39 1.15-0.91 3.22-1.15 4.61-0.24 1.38-0.44 3.19-0.44 4 0 0.82 0.2 2.66 0.45 4.09 0.25 1.42 0.79 3.56 1.2 4.75 0.42 1.18 1.18 2.88 1.69 3.78 0.51 0.9 1.49 2.37 2.17 3.27 0.68 0.89 2.04 2.36 3.03 3.26 0.99 0.9 2.64 2.14 3.68 2.75 1.04 0.62 2.96 1.54 4.26 2.04 1.31 0.5 3.45 1.12 4.75 1.36 1.72 0.33 3.58 0.41 6.68 0.31 3.05-0.1 5-0.32 6.68-0.76 1.31-0.34 3.28-0.96 4.38-1.38 1.1-0.41 3.04-1.28 4.31-1.93 1.26-0.64 2.87-1.51 3.56-1.93l1.26-0.75c0.99 3.1 1.83 5.21 2.51 6.68 0.68 1.46 2.03 3.94 3.01 5.49 0.97 1.55 2.56 3.88 3.54 5.19 0.98 1.3 3.18 3.83 4.89 5.6 1.72 1.78 4.46 4.31 6.09 5.63 1.63 1.31 4.1 3.12 5.49 4.02 1.39 0.89 3.8 2.27 5.35 3.07 1.55 0.79 4.22 1.99 5.93 2.66 1.72 0.67 4.66 1.6 6.53 2.08 1.88 0.47 4.33 0.95 5.43 1.07l2.02 0.22c0.46 1.84 0.93 3.51 1.35 4.89 0.42 1.39 1.13 3.33 1.57 4.31 0.44 0.98 1.23 2.42 1.75 3.19 0.52 0.78 1.38 1.68 1.91 2 0.53 0.32 1.5 0.67 2.15 0.77 0.88 0.14 1.5 0.03 2.38-0.41 0.65-0.33 1.53-0.98 1.95-1.44 0.43-0.47 1.07-1.38 1.44-2.03 0.38-0.66 1.02-1.99 1.43-2.97 0.42-0.98 1.17-3.24 1.68-5.03l0.92-3.24c4.14-0.61 6.55-1.11 8.02-1.5 1.47-0.39 4.01-1.21 5.64-1.81 1.63-0.61 4.37-1.82 6.08-2.69 1.72-0.88 4.52-2.51 6.24-3.62 1.71-1.12 4.32-3.05 5.79-4.28 1.47-1.23 3.86-3.5 5.32-5.03 1.45-1.53 3.4-3.79 4.33-5.01 0.93-1.23 2.47-3.43 3.42-4.9 0.95-1.47 2.31-3.91 3.01-5.42 0.71-1.51 1.58-3.66 1.95-4.79 0.37-1.12 0.77-2.12 0.89-2.22 0.13-0.1 0.59 0.07 1.04 0.38 0.45 0.31 2.02 1.17 3.49 1.92 1.47 0.74 3.87 1.76 5.34 2.26 1.47 0.5 3.81 1.11 5.2 1.35 1.39 0.24 4.16 0.44 6.16 0.44 2.14-0.01 4.58-0.2 5.94-0.48 1.26-0.26 3.23-0.83 4.38-1.26 1.14-0.44 3.14-1.46 4.45-2.27 1.31-0.81 3.25-2.34 4.32-3.41 1.06-1.07 2.52-2.81 3.24-3.87 0.72-1.06 1.68-2.73 2.14-3.71 0.45-0.98 1.12-2.85 1.47-4.15 0.51-1.87 0.65-3.23 0.66-6.39 0.01-3.24-0.11-4.49-0.65-6.53-0.36-1.39-1.21-3.66-1.87-5.05-0.66-1.38-1.62-3.12-2.13-3.85-0.51-0.74-1.63-2.18-2.5-3.2-0.86-1.02-1.53-1.9-1.49-1.97 0.04-0.06 1.14-0.53 2.45-1.05 1.31-0.52 3.64-1.62 5.2-2.44 1.55-0.83 4.02-2.34 5.49-3.37 1.47-1.02 3.8-2.86 5.19-4.08 1.39-1.21 3.48-3.33 4.64-4.7 1.17-1.38 2.9-3.7 3.85-5.17 0.95-1.47 2.15-3.61 2.67-4.75 0.52-1.14 1.29-3.08 1.71-4.31 0.42-1.22 0.99-3.49 1.27-5.04 0.33-1.81 0.51-4.27 0.5-6.83-0.01-2.61-0.19-4.79-0.51-6.24-0.28-1.22-0.84-3.22-1.25-4.45-0.41-1.22-1.28-3.23-1.93-4.45-0.65-1.23-1.77-3.03-2.49-4.01-0.73-0.98-2.36-2.83-3.63-4.11-1.27-1.28-3.11-2.91-4.09-3.61-0.98-0.7-2.91-1.85-4.3-2.54-1.39-0.69-3.39-1.55-4.45-1.92-1.06-0.36-3.07-0.9-4.46-1.21-1.89-0.41-3.74-0.54-7.42-0.54-3.8 0.01-5.63 0.15-8.16 0.65-1.8 0.35-4.87 1.19-6.83 1.85-1.96 0.67-5.3 2.06-7.42 3.1-2.12 1.04-5.16 2.77-6.76 3.85-1.59 1.08-2.94 1.92-2.99 1.88-0.06-0.04-0.26-1.88-0.45-4.08-0.19-2.2-0.62-5.34-0.96-6.98-0.33-1.63-1.2-4.77-1.93-6.97-0.73-2.21-2.04-5.48-2.92-7.28-0.88-1.79-2.39-4.46-3.36-5.93-0.97-1.47-2.57-3.68-3.56-4.9-0.99-1.23-3.38-3.77-5.32-5.65-1.93-1.89-4.72-4.32-6.19-5.42-1.47-1.09-4.01-2.78-5.64-3.75-1.63-0.97-3.81-2.14-4.83-2.6-1.85-0.83-1.86-0.85-1.69-1.88 0.1-0.57 0.74-2.44 1.42-4.15 0.69-1.72 1.87-4.12 2.63-5.35 0.76-1.22 2.26-3.26 3.34-4.53 1.07-1.26 2.92-2.98 4.1-3.81 1.19-0.83 2.85-1.87 3.7-2.3 1.45-0.74 1.57-0.76 2.08-0.29 0.29 0.28 1.33 0.88 2.31 1.34 1.52 0.71 2.16 0.83 4.31 0.83 2.21 0 2.74-0.11 4.26-0.89 0.96-0.49 2.27-1.46 2.9-2.15 0.63-0.69 1.44-1.83 1.8-2.52 0.46-0.91 0.68-1.96 0.77-3.79 0.1-2.1 0.01-2.82-0.55-4.3-0.47-1.23-1.14-2.25-2.18-3.28-0.83-0.82-2.18-1.82-3-2.21-1.2-0.58-1.95-0.72-4-0.72-2-0.01-2.83 0.13-4.01 0.67-0.82 0.37-1.95 1.03-2.51 1.47-0.57 0.44-1.41 1.4-1.87 2.14-0.46 0.73-1.04 2-1.27 2.82-0.43 1.46-0.48 1.5-2.74 2.51-1.26 0.57-3.43 1.79-4.82 2.72-1.39 0.92-3.67 2.86-5.06 4.31-1.4 1.45-3.22 3.63-4.04 4.86-0.83 1.22-2.01 3.22-2.63 4.45-0.62 1.22-1.7 3.96-2.4 6.09-0.86 2.6-1.4 3.82-1.67 3.75-0.21-0.06-1.92-0.49-3.8-0.96-1.87-0.46-4.98-1.05-6.9-1.3-2.02-0.26-5.74-0.46-8.83-0.46-3.09 0-6.81 0.2-8.83 0.46-1.92 0.25-5.03 0.84-6.9 1.3-1.88 0.47-3.62 0.94-3.86 1.05-0.35 0.14-0.56-0.26-0.97-1.83-0.28-1.11-0.9-3.02-1.37-4.24-0.47-1.23-1.22-2.96-1.67-3.86-0.45-0.9-1.55-2.77-2.45-4.16-0.99-1.54-2.85-3.74-4.78-5.66-2.07-2.04-4.04-3.67-5.69-4.68-1.38-0.85-3.29-1.85-4.22-2.21-1.61-0.62-1.72-0.73-2.03-1.99-0.18-0.74-0.57-1.81-0.86-2.38-0.3-0.57-1.19-1.63-1.98-2.36-0.79-0.73-2.05-1.58-2.78-1.9-0.74-0.32-2.14-0.62-3.12-0.68-0.98-0.05-2.38 0.07-3.11 0.27z"/>
		<path id="Path 2" class="s1" d="m220.73 143.42c-1.31 0.16-3.91 0.63-5.79 1.05-1.88 0.42-4.42 1.11-5.64 1.52-1.23 0.41-3.37 1.23-4.75 1.82-1.39 0.6-3.8 1.79-5.35 2.65-1.55 0.86-4.09 2.46-5.64 3.56-1.61 1.14-4.6 3.76-6.98 6.14-2.94 2.93-4.76 5.04-6.15 7.13-1.08 1.63-2.7 4.44-3.59 6.23-0.89 1.8-2.04 4.47-2.56 5.94-0.51 1.47-1.27 4.28-1.67 6.24-0.51 2.44-0.8 5-0.92 8.16-0.11 2.88-0.04 5.6 0.18 7.27 0.19 1.47 0.66 3.94 1.05 5.5 0.39 1.55 1.26 4.22 1.94 5.93 0.68 1.72 1.81 4.19 2.52 5.49 0.71 1.31 2.13 3.57 3.17 5.03 1.03 1.45 3.22 4.04 4.85 5.75 1.63 1.71 4.04 3.97 5.34 5.02 1.31 1.05 3.51 2.61 4.9 3.48 1.39 0.86 3.59 2.1 4.9 2.76 1.31 0.65 3.64 1.66 5.19 2.25 1.56 0.59 4.03 1.41 5.5 1.82 1.47 0.41 4.27 1.05 6.23 1.41 3.11 0.59 4.51 0.67 10.99 0.66 6.79 0 7.76-0.07 11.42-0.79 2.21-0.43 5.48-1.26 7.28-1.84 1.79-0.58 5.13-1.98 7.42-3.11 2.29-1.12 5.23-2.74 6.53-3.6 1.31-0.85 2.98-2.03 3.71-2.62 0.74-0.58 2.4-2 3.69-3.15 1.29-1.14 3.36-3.28 4.58-4.75 1.23-1.47 3.02-3.88 3.99-5.35 0.96-1.47 2.33-3.87 3.02-5.34 0.7-1.47 1.62-3.74 2.05-5.05 0.42-1.3 1.04-3.51 1.36-4.9 0.33-1.38 0.74-4.12 0.92-6.08 0.24-2.57 0.24-4.62 0.01-7.35-0.18-2.08-0.59-5.02-0.91-6.53-0.33-1.51-1.01-4.02-1.52-5.57-0.51-1.55-1.49-4.02-2.18-5.49-0.69-1.47-2-3.87-2.91-5.34-0.92-1.47-2.53-3.74-3.58-5.05-1.05-1.31-3.06-3.48-4.47-4.82-1.41-1.35-3.96-3.49-5.66-4.75-1.71-1.27-4.55-3.1-6.31-4.08-1.77-0.98-4.41-2.27-5.88-2.87-1.47-0.61-4.28-1.58-6.24-2.18-1.96-0.59-5.16-1.34-7.12-1.67-2.39-0.41-5.37-0.64-9.06-0.71-3.02-0.06-6.56 0.02-7.86 0.18zm-93.96 48.95c-1.07 0.13-2.8 0.47-3.86 0.75-1.07 0.27-2.73 0.86-3.71 1.31-0.98 0.44-2.65 1.39-3.72 2.11-1.06 0.71-2.51 1.84-3.22 2.5-0.71 0.66-1.94 2.07-2.72 3.13-0.79 1.06-1.97 3.07-2.61 4.46-0.65 1.38-1.38 3.45-1.63 4.6-0.25 1.14-0.55 2.94-0.66 4-0.11 1.07-0.04 3.2 0.14 4.75 0.19 1.56 0.74 3.99 1.22 5.42 0.48 1.43 1.39 3.64 2.02 4.9 0.64 1.27 1.96 3.37 2.95 4.68 0.99 1.3 2.71 3.26 3.82 4.35 1.12 1.09 3.3 2.93 4.85 4.08 1.55 1.16 4.36 2.9 6.23 3.87 1.88 0.97 4.62 2.22 6.09 2.79 1.47 0.57 4.34 1.46 6.38 1.99 2.04 0.52 4.08 1.14 4.53 1.36 0.45 0.22 1.08 0.84 1.41 1.37 0.33 0.53 0.59 1.44 0.59 2.01 0 0.57-0.26 1.47-0.59 2-0.41 0.67-1.2 1.25-2.6 1.88-1.1 0.51-2.6 1.34-3.34 1.84-0.73 0.51-2.12 1.67-3.08 2.57-0.97 0.91-2.41 2.65-3.21 3.88-0.8 1.22-1.73 3.09-2.07 4.15-0.36 1.16-0.67 3.13-0.76 4.9-0.11 2.19-0.02 3.48 0.34 4.9 0.26 1.06 0.9 2.8 1.42 3.86q0.93 1.93 3.03 4.03 2.11 2.1 4.04 3.04c1.06 0.52 2.79 1.17 3.86 1.45 1.33 0.35 2.97 0.5 5.34 0.48 2.77-0.02 3.9-0.17 6.01-0.8 1.43-0.43 3.57-1.26 4.75-1.85 1.19-0.6 3.36-1.86 4.83-2.81l2.67-1.74c-0.79-4.27-1.17-7.11-1.36-9.07-0.22-2.21-0.28-5.49-0.17-8.61 0.1-2.78 0.39-6.38 0.64-8.02 0.24-1.63 0.86-4.64 1.37-6.68 0.5-2.04 1.45-5.18 2.11-6.97 0.66-1.8 2-4.87 2.98-6.83 0.98-1.96 2.7-5 3.82-6.76l2.04-3.19c-3.6-4.71-5.43-7.42-6.39-9.05-0.96-1.63-2.32-4.31-3.01-5.94-0.69-1.63-1.7-4.41-2.24-6.17l-0.98-3.2c-5.52-4.52-8.46-6.71-10.09-7.79-1.64-1.07-4.64-2.75-6.68-3.72-2.04-0.98-5.05-2.18-6.68-2.68-1.64-0.5-3.77-1.04-4.75-1.2-0.98-0.17-3.05-0.36-4.6-0.44-1.56-0.08-3.69-0.03-4.75 0.11zm194 0.2c-0.49 0.08-1.89 0.39-3.11 0.7-1.23 0.31-3.23 0.92-4.46 1.35-1.22 0.44-3.76 1.57-5.64 2.51-1.88 0.94-4.61 2.51-6.08 3.5-1.47 0.99-3.56 2.51-4.63 3.38-1.08 0.87-2.63 2.18-3.46 2.91-1.42 1.27-1.56 1.53-2.82 5.35-0.73 2.2-1.98 5.34-2.78 6.97-0.79 1.64-2.16 4.11-3.04 5.49-0.87 1.39-2.47 3.66-3.54 5.05-1.83 2.36-1.93 2.57-1.53 3.18 0.23 0.36 1.3 2.09 2.38 3.86 1.08 1.76 2.45 4.17 3.05 5.36 0.59 1.18 1.62 3.52 2.29 5.19 0.67 1.67 1.66 4.58 2.2 6.46 0.54 1.88 1.32 5.42 1.73 7.87 0.42 2.44 0.84 6.19 0.95 8.31 0.12 2.23 0.06 5.61-0.14 8.01-0.18 2.29-0.62 5.56-0.96 7.28l-0.62 3.11c1.4 1.15 2.86 2.12 4.14 2.89 1.28 0.78 3.46 1.87 4.85 2.44 1.38 0.57 3.39 1.26 4.45 1.54 1.23 0.33 3.06 0.52 5.05 0.53 2.04 0 3.78-0.17 5.04-0.51 1.07-0.28 2.94-1 4.16-1.6 1.53-0.75 2.84-1.71 4.17-3.04 1.24-1.24 2.29-2.65 2.89-3.88 0.52-1.06 1.15-2.73 1.4-3.71 0.25-0.98 0.45-2.85 0.44-4.16 0-1.3-0.21-3.24-0.46-4.3-0.25-1.06-0.94-2.92-1.55-4.13-0.62-1.25-1.87-3.04-2.88-4.13-0.98-1.06-2.59-2.49-3.56-3.19-0.98-0.7-2.79-1.73-4.01-2.3-1.23-0.56-2.51-1.34-2.86-1.73-0.35-0.38-0.72-1-0.82-1.37-0.1-0.37-0.05-1.2 0.11-1.85 0.17-0.68 0.65-1.48 1.12-1.86 0.51-0.43 2.25-1.04 4.67-1.67 2.13-0.54 5.13-1.46 6.68-2.03 1.55-0.57 4.36-1.83 6.24-2.8 1.88-0.97 4.68-2.66 6.22-3.75 1.55-1.1 3.89-3.06 5.21-4.37 1.31-1.31 3.09-3.31 3.95-4.45 0.86-1.15 2.29-3.55 3.18-5.35 0.9-1.79 1.83-4.06 2.08-5.04 0.24-0.98 0.59-3.05 0.76-4.61 0.21-1.95 0.21-3.59 0-5.34-0.17-1.39-0.59-3.46-0.94-4.6-0.35-1.14-1.22-3.21-1.94-4.6-0.72-1.39-2.01-3.38-2.86-4.43-0.86-1.05-2.5-2.63-3.64-3.51-1.14-0.88-3.15-2.11-4.45-2.75-1.31-0.63-3.18-1.37-4.16-1.64-1.25-0.35-3.24-0.53-6.68-0.59-2.69-0.05-5.3-0.03-5.79 0.05zm-139.72 49.46c-1.08 1.84-2.23 3.87-2.56 4.52-0.32 0.66-1.21 2.76-1.96 4.68-0.76 1.92-1.37 3.56-1.37 3.64 0 0.08 1.17 0.7 2.59 1.37 1.43 0.68 4.34 1.93 6.46 2.79 2.12 0.85 5.73 2.16 8.02 2.9 2.28 0.74 6.29 1.83 8.9 2.41 2.62 0.58 6.49 1.32 8.61 1.64 2.12 0.32 5.46 0.73 7.42 0.89 1.96 0.17 6.94 0.31 11.06 0.31 4.13 0.01 9.14-0.14 11.14-0.31 2-0.17 5.57-0.64 7.94-1.03 2.36-0.39 6.04-1.11 8.16-1.59 2.12-0.49 5.46-1.37 7.42-1.96 1.96-0.6 4.83-1.56 6.39-2.14 1.55-0.58 4.69-1.91 6.97-2.95 2.29-1.05 4.29-2.04 4.46-2.2q0.29-0.3-0.4-2.3c-0.39-1.09-1.4-3.46-2.25-5.25-0.86-1.8-2.31-4.51-3.24-6.02l-1.69-2.74c-1.72 1.22-2.76 2-3.41 2.52-0.65 0.52-2.19 1.61-3.41 2.43-1.23 0.82-3.43 2.17-4.9 3-1.47 0.83-4.14 2.13-5.94 2.89-1.8 0.75-4.73 1.82-6.53 2.36-1.8 0.55-4.67 1.29-6.38 1.64-1.72 0.35-4.79 0.83-6.83 1.06-2.04 0.23-5.32 0.42-7.27 0.42-1.96 0-5.1-0.13-6.98-0.29-1.88-0.17-4.82-0.56-6.53-0.88-1.72-0.33-4.32-0.93-5.79-1.35-1.47-0.42-4.01-1.26-5.64-1.86-1.64-0.6-4.57-1.9-6.53-2.89-1.96-0.99-4.77-2.58-6.24-3.53-1.47-0.96-3.77-2.59-5.12-3.63-1.35-1.04-2.48-1.89-2.52-1.89-0.04 0.01-0.96 1.51-2.05 3.34zm-8.43 28.79c-0.11 1.84-0.12 4.68-0.01 6.31 0.11 1.64 0.26 3.41 0.34 3.94 0.11 0.83 0.36 1.08 1.84 1.81 0.93 0.47 3.37 1.53 5.41 2.35 2.04 0.83 5.32 2.03 7.28 2.68 1.96 0.64 5.7 1.72 8.31 2.39 2.61 0.67 6.08 1.49 7.72 1.82 1.63 0.34 4.97 0.87 7.42 1.18 2.45 0.32 6.52 0.73 9.05 0.93 2.86 0.22 7.31 0.28 11.73 0.17 3.92-0.09 8.46-0.31 10.09-0.49 1.64-0.18 5.24-0.71 8.02-1.2 2.78-0.48 6.65-1.27 8.61-1.75 1.96-0.48 5.17-1.36 7.12-1.95 1.96-0.6 5.5-1.83 7.87-2.74 2.37-0.91 5.54-2.24 7.05-2.95l2.75-1.29c0.34-2.18 0.44-5.38 0.44-8.51 0-3.13-0.09-5.8-0.22-5.94-0.12-0.13-1.72 0.45-3.56 1.3-1.84 0.84-4.08 1.83-4.97 2.18-0.9 0.35-3.31 1.22-5.35 1.94-2.04 0.71-5.65 1.82-8.01 2.46-2.37 0.65-6.04 1.53-8.17 1.97-2.12 0.43-5.66 1.04-7.86 1.35-2.21 0.31-6.55 0.71-9.65 0.9-3.25 0.19-7.79 0.25-10.69 0.14-2.78-0.11-7.05-0.39-9.5-0.62-2.45-0.23-6.39-0.75-8.76-1.15-2.37-0.4-6.04-1.13-8.16-1.62-2.12-0.49-5.2-1.28-6.83-1.76-1.63-0.47-4.91-1.56-7.27-2.42-2.37-0.86-5.91-2.29-7.87-3.17-1.96-0.88-3.65-1.6-3.76-1.6-0.11 0-0.29 1.51-0.41 3.34zm3.97 25.64c0.03 0.07 0.86 1.82 1.85 3.9 0.99 2.09 2.78 5.26 3.99 7.05 1.21 1.8 3.24 4.44 4.51 5.87 1.28 1.43 3.39 3.53 4.69 4.68 1.31 1.15 3.51 2.9 4.9 3.89 1.39 0.99 3.66 2.41 5.05 3.17 1.39 0.75 3.99 1.95 5.79 2.65 1.79 0.71 4.47 1.61 5.93 2.01 1.47 0.39 4.08 0.92 5.79 1.17 1.97 0.29 5.28 0.46 8.98 0.46 3.76 0 6.96-0.16 8.91-0.45 1.67-0.25 4.38-0.8 6.01-1.23 1.63-0.42 3.97-1.17 5.2-1.65 1.22-0.48 3.76-1.67 5.64-2.64 1.88-0.97 4.68-2.66 6.23-3.76 1.55-1.09 4.51-3.66 6.57-5.7 2.06-2.04 4.58-4.85 5.6-6.24 1.02-1.39 2.55-3.73 3.41-5.19 0.85-1.47 2-3.71 2.56-4.97 0.56-1.26 0.94-2.36 0.86-2.44-0.08-0.08-1.55 0.43-3.26 1.14-1.72 0.71-4.92 1.91-7.13 2.68-2.2 0.76-6.14 1.91-8.76 2.56-2.61 0.64-6.68 1.49-9.05 1.9-2.37 0.4-6.31 0.95-8.76 1.23-3.21 0.36-6.93 0.51-13.36 0.51-6.46 0.01-10.17-0.13-13.51-0.5-2.53-0.28-6.53-0.84-8.9-1.24-2.37-0.41-6.24-1.21-8.61-1.8-2.37-0.58-6.84-1.9-9.95-2.93-3.1-1.03-6.9-2.4-8.43-3.05-1.54-0.66-2.78-1.14-2.75-1.08z"/>
		<path id="Path 3" class="s0" d="m199.65 177.33c-0.83 0.39-1.98 1.27-2.61 2-0.61 0.73-1.33 1.99-1.59 2.8-0.32 0.98-0.44 2.15-0.36 3.42 0.08 1.26 0.38 2.43 0.86 3.38 0.4 0.8 1.26 1.9 1.92 2.45 0.65 0.55 1.79 1.21 2.52 1.45 0.74 0.24 1.9 0.44 2.6 0.44 0.69 0 1.96-0.26 2.82-0.58 1.12-0.41 1.96-1.02 2.98-2.15 0.79-0.87 1.62-2.18 1.86-2.92 0.24-0.73 0.43-2 0.43-2.82 0-0.81-0.23-2.13-0.52-2.93-0.29-0.79-0.99-1.98-1.56-2.64-0.57-0.67-1.71-1.52-2.52-1.9-1.07-0.49-2.03-0.68-3.42-0.68-1.39 0-2.34 0.19-3.41 0.68zm50.17 0.03c-0.82 0.39-1.94 1.23-2.5 1.85-0.56 0.63-1.29 1.74-1.61 2.48q-0.6 1.33-0.6 3.26c0 1.3 0.2 2.37 0.6 3.27 0.33 0.73 0.99 1.79 1.47 2.34 0.47 0.55 1.46 1.35 2.19 1.76 0.94 0.53 1.93 0.8 3.27 0.89 1.57 0.11 2.23 0 3.54-0.58 0.97-0.42 2.09-1.24 2.82-2.05 0.77-0.86 1.42-2 1.77-3.12 0.39-1.23 0.52-2.26 0.41-3.4-0.08-0.9-0.42-2.16-0.75-2.82-0.32-0.65-0.97-1.64-1.44-2.2-0.47-0.56-1.53-1.33-2.34-1.71-1.07-0.49-2.03-0.69-3.42-0.69-1.44 0-2.3 0.17-3.41 0.72zm-42.6 26.2c-0.56 0.3-1.34 1.01-1.71 1.58-0.48 0.74-0.68 1.47-0.68 2.52 0 1.1 0.27 2.03 1.03 3.57 0.57 1.14 1.61 2.77 2.31 3.62 0.7 0.84 1.94 2.11 2.76 2.82 0.82 0.7 2.29 1.77 3.27 2.37 0.98 0.61 2.85 1.5 4.15 1.98 1.31 0.48 3.51 1.11 4.9 1.39 1.94 0.39 3.35 0.47 6.09 0.34 2.17-0.1 4.43-0.4 5.78-0.77 1.23-0.34 3.23-1.09 4.46-1.68 1.22-0.59 3.03-1.64 4.01-2.33 0.98-0.7 2.62-2.19 3.66-3.32 1.07-1.17 2.31-2.94 2.89-4.13 0.56-1.14 1.09-2.68 1.19-3.41 0.12-1.04 0.01-1.63-0.53-2.67-0.53-1.04-0.98-1.46-2.02-1.89q-1.33-0.56-2.37-0.38c-0.58 0.09-1.51 0.48-2.08 0.86-0.81 0.53-1.24 1.19-1.92 2.9-0.68 1.74-1.26 2.61-2.67 4.02-0.99 1-2.52 2.15-3.43 2.59-0.9 0.43-2.43 0.99-3.41 1.24-1 0.26-3.02 0.45-4.6 0.45-1.55 0-3.66-0.2-4.68-0.45-1.02-0.24-2.56-0.79-3.41-1.21-0.86-0.43-2.15-1.27-2.87-1.86-0.72-0.59-1.67-1.61-2.1-2.26-0.44-0.66-1.12-1.98-1.51-2.95-0.42-1.03-1.09-2.04-1.61-2.45-0.53-0.4-1.5-0.75-2.38-0.85-1.11-0.13-1.74-0.04-2.52 0.36z"/>
	</g>
</svg>