<svg version="1.2" xmlns="http://www.w3.org/2000/svg" viewBox="0 0 24 24" width="24" height="24">
	<style>
		.s0 { fill: #000000 } 
	</style>
	<path fill-rule="evenodd" class="s0" d="m7.3 3.19h1.08q0.18 0 0.35 0.07 0.17 0.07 0.3 0.2 0.13 0.13 0.2 0.3 0.07 0.17 0.07 0.35v1q0.18 0.06 0.36 0.12 0.18 0.07 0.35 0.15 0.18 0.08 0.35 0.17 0.17 0.09 0.33 0.19l0.75-0.75q0.13-0.14 0.3-0.21 0.17-0.07 0.35-0.07 0.19 0 0.36 0.07 0.17 0.07 0.3 0.21l0.75 0.77q0.13 0.13 0.2 0.29 0.07 0.17 0.07 0.36 0 0.18-0.07 0.35-0.07 0.17-0.2 0.3l-0.8 0.8q0.09 0.16 0.16 0.32 0.08 0.16 0.14 0.33 0.07 0.16 0.12 0.33 0.06 0.17 0.1 0.35h1.16q0.18 0 0.35 0.07 0.17 0.07 0.3 0.2 0.13 0.13 0.2 0.3 0.07 0.17 0.07 0.35v1.08q0 0.18-0.07 0.35-0.07 0.17-0.2 0.3-0.13 0.13-0.3 0.2-0.17 0.07-0.35 0.07h-1.17q-0.04 0.17-0.1 0.34-0.06 0.17-0.12 0.34-0.07 0.16-0.15 0.32-0.07 0.16-0.16 0.31l0.82 0.83q0.13 0.13 0.2 0.3 0.07 0.17 0.07 0.36 0 0.18-0.07 0.35-0.07 0.17-0.2 0.3l-0.77 0.75q-0.13 0.13-0.3 0.2-0.17 0.08-0.35 0.08-0.19 0-0.36-0.08-0.17-0.07-0.3-0.2l-0.77-0.77q-0.16 0.1-0.33 0.19-0.16 0.08-0.33 0.16-0.17 0.08-0.35 0.14-0.17 0.07-0.35 0.12v1.04q0 0.19-0.07 0.36-0.07 0.17-0.2 0.29-0.13 0.13-0.3 0.2-0.17 0.08-0.35 0.08h-1.07q-0.19 0-0.36-0.08-0.17-0.07-0.3-0.2-0.13-0.13-0.2-0.3-0.07-0.17-0.06-0.35v-0.94q-0.2-0.04-0.39-0.1-0.2-0.06-0.38-0.13-0.19-0.07-0.38-0.15-0.18-0.08-0.36-0.18l-0.62 0.62q-0.13 0.13-0.3 0.2-0.17 0.07-0.36 0.07-0.18 0-0.35-0.07-0.17-0.07-0.3-0.2l-0.76-0.77q-0.13-0.13-0.21-0.3-0.07-0.17-0.07-0.35 0-0.19 0.07-0.36 0.08-0.17 0.21-0.3l0.57-0.57q-0.11-0.18-0.21-0.37-0.1-0.19-0.18-0.38-0.09-0.19-0.16-0.39-0.07-0.2-0.12-0.41h-0.78q-0.19 0-0.36-0.07-0.16-0.07-0.29-0.2-0.13-0.13-0.2-0.3-0.07-0.17-0.07-0.35v-1.08q0-0.18 0.07-0.35 0.07-0.17 0.2-0.3 0.13-0.13 0.29-0.2 0.17-0.07 0.36-0.07h0.76q0.06-0.21 0.13-0.41 0.06-0.21 0.15-0.4 0.08-0.2 0.18-0.39 0.1-0.19 0.21-0.37l-0.56-0.57q-0.13-0.13-0.2-0.29-0.07-0.17-0.07-0.36 0-0.18 0.07-0.35 0.07-0.17 0.2-0.3l0.77-0.76q0.13-0.13 0.3-0.2 0.17-0.07 0.35-0.07 0.19 0 0.36 0.07 0.17 0.07 0.3 0.2l0.6 0.6q0.18-0.1 0.36-0.18 0.19-0.09 0.38-0.16 0.19-0.08 0.39-0.14 0.2-0.05 0.39-0.1l0.01-0.9q0-0.18 0.07-0.35 0.07-0.17 0.2-0.3 0.13-0.13 0.29-0.2 0.17-0.07 0.36-0.07zm10.74 8.91l0.61-0.12q0.1-0.02 0.21 0.01 0.1 0.02 0.19 0.08 0.08 0.06 0.14 0.15 0.06 0.09 0.08 0.19l0.1 0.56q0.11 0.01 0.22 0.03 0.11 0.02 0.21 0.05 0.11 0.02 0.22 0.06 0.1 0.03 0.2 0.07l0.35-0.5q0.06-0.09 0.14-0.14 0.09-0.06 0.2-0.08 0.1-0.02 0.2 0 0.1 0.02 0.19 0.08l0.52 0.36q0.08 0.06 0.14 0.14 0.06 0.09 0.08 0.2 0.01 0.1-0.01 0.2-0.02 0.11-0.08 0.19l-0.37 0.54q0.06 0.08 0.12 0.16 0.06 0.09 0.12 0.17 0.05 0.09 0.1 0.18 0.05 0.09 0.09 0.19l0.66-0.12q0.1-0.02 0.21 0 0.1 0.02 0.19 0.08 0.08 0.06 0.14 0.15 0.06 0.09 0.08 0.19l0.11 0.61q0.02 0.11 0 0.21-0.02 0.1-0.08 0.19-0.06 0.09-0.15 0.14-0.09 0.06-0.19 0.08l-0.67 0.12q0 0.11-0.02 0.21-0.01 0.1-0.03 0.2-0.02 0.1-0.05 0.2-0.02 0.1-0.06 0.19l0.55 0.38q0.09 0.06 0.14 0.15 0.06 0.09 0.08 0.19 0.02 0.1 0 0.21-0.02 0.1-0.08 0.19l-0.36 0.51q-0.06 0.09-0.15 0.14-0.08 0.06-0.19 0.08-0.1 0.02-0.2 0-0.11-0.02-0.19-0.08l-0.52-0.36q-0.08 0.07-0.17 0.14-0.08 0.07-0.17 0.13-0.09 0.06-0.18 0.11-0.09 0.06-0.19 0.11l0.11 0.59q0.02 0.1 0 0.21-0.02 0.1-0.08 0.19-0.06 0.09-0.14 0.15-0.09 0.06-0.2 0.08l-0.61 0.11q-0.1 0.02-0.21 0-0.1-0.02-0.19-0.08-0.08-0.06-0.14-0.15-0.06-0.09-0.08-0.19l-0.09-0.54q-0.12 0-0.24-0.01-0.11-0.02-0.23-0.04-0.11-0.02-0.22-0.05-0.11-0.02-0.22-0.06l-0.29 0.42q-0.07 0.09-0.15 0.14-0.09 0.06-0.2 0.08-0.1 0.02-0.2 0-0.1-0.02-0.19-0.08l-0.52-0.36q-0.08-0.06-0.14-0.15-0.06-0.08-0.08-0.19-0.01-0.1 0.01-0.2 0.02-0.11 0.08-0.19l0.26-0.38q-0.08-0.09-0.16-0.19-0.07-0.09-0.14-0.19-0.07-0.11-0.13-0.21-0.06-0.11-0.11-0.22l-0.44 0.08q-0.11 0.02-0.21 0-0.1-0.02-0.19-0.08-0.09-0.06-0.14-0.15-0.06-0.09-0.08-0.19l-0.12-0.61q-0.02-0.11 0-0.22 0.02-0.1 0.08-0.19 0.06-0.09 0.15-0.15 0.09-0.06 0.2-0.08l0.43-0.08q0.01-0.12 0.03-0.24 0.02-0.12 0.05-0.24 0.02-0.12 0.06-0.24 0.04-0.12 0.08-0.24l-0.37-0.25q-0.09-0.06-0.15-0.15-0.06-0.09-0.07-0.19-0.02-0.11 0-0.21 0.02-0.1 0.08-0.19l0.35-0.51q0.06-0.09 0.15-0.15 0.09-0.06 0.19-0.08 0.11-0.01 0.21 0.01 0.1 0.02 0.19 0.08l0.4 0.28q0.09-0.08 0.19-0.15 0.1-0.07 0.2-0.13 0.1-0.06 0.2-0.11 0.11-0.06 0.22-0.1l-0.1-0.52q-0.02-0.1 0.01-0.2 0.02-0.1 0.08-0.19 0.06-0.09 0.15-0.15 0.08-0.05 0.19-0.07zm0.21 2.82q-0.27 0.18-0.45 0.44-0.18 0.26-0.24 0.58-0.07 0.31-0.01 0.62c0.12 0.64 0.61 1.14 1.25 1.27 0.63 0.14 1.28-0.12 1.65-0.66 0.36-0.53 0.37-1.24 0.02-1.78-0.35-0.54-1-0.82-1.64-0.7q-0.31 0.06-0.58 0.23zm-11.47-6.83q-0.51 0.21-0.9 0.6-0.39 0.39-0.6 0.9-0.22 0.51-0.22 1.06c0 1.13 0.68 2.15 1.72 2.58 1.04 0.43 2.24 0.2 3.04-0.6 0.79-0.8 1.03-2 0.6-3.04-0.44-1.04-1.45-1.72-2.58-1.72q-0.55 0.01-1.06 0.22z"/>
</svg>