<svg version="1.2" xmlns="http://www.w3.org/2000/svg" viewBox="0 0 24 24" width="24" height="24">
	<defs>
		<clipPath clipPathUnits="userSpaceOnUse" id="cp1">
			<path d="m22 1v21h-21v-21z"/>
		</clipPath>
	</defs>
	<style>
		.s0 { fill: #344952 } 
	</style>
	<filter id="f0">
		<feFlood flood-color="#000000" flood-opacity="1" />
		<feBlend mode="normal" in2="SourceGraphic"/>
		<feComposite in2="SourceAlpha" operator="in" />
	</filter>
	<g id="Clip-Path: pointer2" clip-path="url(#cp1)" filter="url(#f0)">
		<g id="pointer2">
			<g id="Group_2338">
				<g id="Group_2334">
					<g id="Group_2333">
						<g id="Group_2332">
							<path id="Path_3837" class="s0" d="m16.62 4.5q-0.53-0.52-1.22-0.81-0.7-0.29-1.45-0.29-0.75 0-1.44 0.29-0.69 0.29-1.22 0.81-0.1 0.1-0.1 0.23 0.01 0.14 0.1 0.23 0.1 0.1 0.23 0.1 0.13 0 0.23-0.09c0.58-0.59 1.38-0.91 2.2-0.91 0.83 0 1.62 0.32 2.2 0.91 0.59 0.58 0.92 1.37 0.92 2.2 0 0.83-0.33 1.62-0.92 2.2q-0.09 0.1-0.09 0.23 0.01 0.14 0.1 0.23 0.09 0.1 0.23 0.1 0.13 0 0.23-0.09 0.53-0.54 0.81-1.23 0.29-0.69 0.29-1.44 0-0.75-0.29-1.44-0.28-0.69-0.81-1.23z"/>
						</g>
					</g>
				</g>
				<g id="Group_2337">
					<g id="Group_2336">
						<g id="Group_2335">
							<path id="Path_3838" class="s0" d="m18.29 2.84c-1.03-1.03-2.39-1.66-3.84-1.78-1.45-0.12-2.89 0.29-4.08 1.14-1.18 0.85-2.02 2.09-2.37 3.5-0.35 1.41-0.18 2.9 0.47 4.21l-0.4 0.39q-0.21-0.05-0.42-0.08-0.22-0.02-0.44-0.01-0.21 0.01-0.43 0.06-0.21 0.04-0.41 0.11-0.54 0.24-1.02 0.57-0.48 0.34-0.88 0.77-0.4 0.42-0.71 0.92-0.31 0.5-0.51 1.04-0.2 0.61-0.28 1.25-0.08 0.64-0.03 1.28 0.05 0.64 0.23 1.26 0.18 0.62 0.47 1.19 0.24 0.55 0.6 1.04 0.35 0.49 0.8 0.9 0.45 0.4 0.97 0.7 0.52 0.3 1.1 0.49 0.16 0.04 0.31 0.07 0.16 0.04 0.32 0.06 0.16 0.02 0.32 0.03 0.16 0.01 0.32 0.01 0.34 0 0.67-0.05 0.34-0.04 0.66-0.14 0.33-0.09 0.63-0.23 0.31-0.15 0.59-0.33 0.57-0.39 1.12-0.82 0.54-0.42 1.07-0.87 0.52-0.45 1.02-0.93 0.5-0.48 0.98-0.98 0.13-0.13 0.23-0.28 0.1-0.15 0.16-0.32 0.07-0.17 0.1-0.35 0.03-0.18 0.02-0.37-0.01-0.16-0.05-0.32-0.04-0.15-0.11-0.3-0.07-0.15-0.17-0.28-0.11-0.12-0.23-0.23l-0.05-0.03q0.12-0.23 0.16-0.48 0.05-0.25 0.02-0.5-0.04-0.26-0.14-0.49-0.11-0.23-0.27-0.42c1.13-0.16 2.19-0.62 3.07-1.35 0.88-0.73 1.54-1.68 1.91-2.77 0.36-1.08 0.42-2.24 0.15-3.35-0.26-1.11-0.82-2.13-1.63-2.93zm-4.11 13.86q-0.45 0.47-0.92 0.92-0.48 0.46-0.97 0.88-0.5 0.43-1.01 0.83-0.52 0.4-1.05 0.78-0.3 0.19-0.64 0.32-0.34 0.13-0.7 0.18-0.35 0.06-0.71 0.03-0.36-0.02-0.71-0.12-0.44-0.14-0.85-0.37-0.4-0.24-0.74-0.55-0.34-0.32-0.61-0.7-0.27-0.38-0.44-0.82-0.24-0.45-0.39-0.94-0.14-0.49-0.18-1-0.05-0.51 0.01-1.02 0.06-0.51 0.21-0.99 0.15-0.4 0.37-0.76 0.22-0.36 0.5-0.67 0.28-0.31 0.62-0.56 0.33-0.26 0.71-0.45l-0.76 0.77q-0.2 0.19-0.2 0.46 0 0.28 0.19 0.47 0.2 0.19 0.47 0.19 0.27 0 0.47-0.2l1.89-1.89 4.79-4.79q0.09-0.08 0.2-0.13 0.12-0.05 0.25-0.05 0.12 0 0.24 0.05 0.11 0.05 0.21 0.13 0.08 0.09 0.13 0.21 0.05 0.12 0.05 0.24 0 0.13-0.05 0.24-0.05 0.12-0.13 0.21l-4.09 4.09q-0.2 0.19-0.2 0.46 0 0.28 0.19 0.47 0.2 0.2 0.47 0.2 0.27-0.01 0.47-0.2l0.62-0.63q0.01 0 0.02-0.01 0.01-0.01 0.02-0.01 0.02-0.01 0.03-0.02 0.01-0.01 0.02-0.01 0.07-0.08 0.17-0.12 0.1-0.04 0.2-0.04 0.11 0 0.21 0.04 0.09 0.04 0.17 0.12 0.04 0.03 0.07 0.08 0.03 0.04 0.05 0.09 0.02 0.05 0.03 0.1 0.01 0.05 0.01 0.1 0 0.06-0.02 0.11-0.01 0.06-0.03 0.11-0.02 0.05-0.06 0.1-0.03 0.04-0.07 0.08l-0.45 0.49q-0.17 0.21-0.16 0.47 0.01 0.27 0.21 0.45 0.2 0.18 0.47 0.17 0.26-0.01 0.45-0.2l0.01-0.01q0.11-0.11 0.27-0.11 0.15 0 0.27 0.1 0.11 0.11 0.12 0.27 0.01 0.15-0.09 0.27l-0.62 0.5q-0.05 0.03-0.1 0.07-0.05 0.03-0.09 0.07-0.05 0.04-0.09 0.08-0.05 0.04-0.09 0.09-0.17 0.19-0.17 0.44 0 0.26 0.18 0.45 0.17 0.18 0.43 0.21 0.26 0.01 0.46-0.15l0.24-0.19q0.04-0.03 0.07-0.04 0.04-0.01 0.07 0 0.04 0 0.08 0.01 0.03 0.01 0.06 0.03 0.02 0.02 0.03 0.04 0.02 0.02 0.03 0.04 0.01 0.03 0.02 0.05 0 0.03 0 0.05 0 0.05-0.01 0.1-0.01 0.04-0.03 0.08-0.01 0.05-0.04 0.09-0.03 0.03-0.06 0.07zm-0.01-4.72q-0.03-0.14-0.07-0.27-0.05-0.13-0.11-0.25-0.07-0.13-0.15-0.24-0.08-0.11-0.18-0.21-0.05-0.05-0.11-0.1-0.05-0.04-0.11-0.08-0.06-0.04-0.12-0.08-0.06-0.03-0.12-0.06l2.16-2.16q0.27-0.28 0.42-0.63 0.15-0.36 0.15-0.75 0-0.39-0.15-0.74-0.15-0.36-0.42-0.64-0.28-0.26-0.64-0.41-0.36-0.14-0.74-0.14-0.39 0-0.75 0.14-0.35 0.15-0.63 0.41l-3.14 3.14c-0.76-1.95-0.17-4.17 1.46-5.5 1.63-1.32 3.92-1.43 5.67-0.29 1.76 1.15 2.57 3.29 2.02 5.32-0.55 2.02-2.35 3.45-4.44 3.54z"/>
						</g>
					</g>
				</g>
			</g>
		</g>
	</g>
</svg>