<svg version="1.2" xmlns="http://www.w3.org/2000/svg" viewBox="0 0 1250 300" width="1250" height="300">
	<style>
		.s0 { fill: #001826 } 
		.s1 { fill: #2bb3ee } 
	</style>
	<g id="Background">
		<path id="Path 1" class="s0" d="m92.89 23.64c-0.73 0.2-1.93 0.72-2.66 1.14-0.74 0.43-1.77 1.26-2.3 1.85-0.53 0.59-1.22 1.57-1.52 2.18-0.31 0.62-0.71 1.85-0.88 2.75-0.19 1-0.22 2.25-0.06 3.25 0.13 0.9 0.58 2.3 0.99 3.12 0.4 0.81 1.39 2.09 2.18 2.83 0.88 0.83 2.13 1.62 3.22 2.03 1.44 0.55 2.16 0.65 3.85 0.53 1.65-0.12 2.55-0.4 4.44-1.35l2.37-1.2c1.84 0.96 3.1 1.74 4 2.34 0.89 0.61 2.66 2.19 3.92 3.52 1.27 1.32 2.93 3.37 3.69 4.56 0.76 1.18 1.82 3.08 2.34 4.22 0.52 1.14 1.29 3.14 1.72 4.44 0.42 1.31 0.74 2.39 0.7 2.41-0.04 0.01-1.48 0.75-3.19 1.62-1.71 0.88-4.38 2.44-5.92 3.48-1.55 1.03-4.02 2.85-5.48 4.04-1.47 1.19-3.81 3.35-5.2 4.79-1.4 1.44-3.63 4.09-4.96 5.88-1.33 1.8-3.13 4.53-4.01 6.08-0.87 1.55-2.19 4.21-2.94 5.92-0.75 1.72-1.77 4.42-2.27 6-0.5 1.59-1.24 4.66-1.63 6.82-0.4 2.16-0.83 5.29-0.96 6.96-0.14 1.68-0.28 3.04-0.32 3.04-0.04 0-0.58-0.38-1.19-0.85-0.61-0.46-2.38-1.61-3.92-2.54-1.55-0.93-4.08-2.31-5.63-3.05-1.55-0.74-4.35-1.85-6.22-2.47-1.88-0.61-4.88-1.4-6.67-1.74-1.79-0.35-4.79-0.71-6.66-0.81-2.04-0.11-4.65-0.03-6.52 0.19-1.71 0.2-4.24 0.69-5.63 1.09-1.38 0.4-3.85 1.37-5.48 2.15-1.63 0.78-4.03 2.22-5.33 3.19-1.3 0.98-3.31 2.77-4.45 3.98-1.15 1.2-2.63 2.99-3.29 3.97-0.67 0.98-1.68 2.71-2.25 3.85-0.58 1.14-1.4 3.14-1.82 4.45-0.43 1.3-0.98 3.7-1.22 5.33-0.25 1.63-0.45 3.83-0.45 4.89 0 1.06 0.14 3.06 0.31 4.44 0.17 1.39 0.64 3.79 1.05 5.34 0.41 1.54 1.3 4.08 1.99 5.63 0.68 1.54 2.17 4.21 3.3 5.92 1.25 1.88 3.36 4.45 5.34 6.48 1.8 1.86 4.62 4.39 6.27 5.63 1.65 1.25 4.45 3.09 6.22 4.1 1.77 1 4.22 2.24 5.44 2.75 1.22 0.5 2.56 1.05 2.96 1.21l0.74 0.29c-2.55 2.63-3.83 4.19-4.49 5.17-0.66 0.98-1.5 2.38-1.88 3.11-0.37 0.74-0.99 2.27-1.38 3.41-0.39 1.14-0.9 3.21-1.15 4.59-0.24 1.39-0.43 3.19-0.43 4 0 0.82 0.2 2.65 0.44 4.08 0.25 1.42 0.79 3.56 1.21 4.74 0.41 1.18 1.17 2.88 1.68 3.78 0.51 0.89 1.48 2.36 2.16 3.25 0.68 0.9 2.04 2.37 3.03 3.26 0.98 0.9 2.63 2.14 3.67 2.75 1.04 0.61 2.95 1.53 4.25 2.03 1.31 0.5 3.44 1.12 4.74 1.36 1.71 0.32 3.57 0.41 6.67 0.31 3.04-0.1 4.98-0.32 6.66-0.76 1.31-0.34 3.27-0.96 4.37-1.38 1.1-0.41 3.03-1.28 4.3-1.92 1.26-0.65 2.86-1.51 3.55-1.93l1.26-0.75c0.98 3.1 1.82 5.2 2.5 6.66 0.68 1.47 2.03 3.94 3 5.49 0.97 1.54 2.57 3.88 3.54 5.18 0.98 1.3 3.17 3.82 4.88 5.59 1.71 1.78 4.45 4.3 6.08 5.61 1.62 1.31 4.09 3.12 5.48 4.01 1.38 0.9 3.78 2.28 5.33 3.07 1.55 0.79 4.21 1.99 5.92 2.66 1.71 0.67 4.65 1.6 6.52 2.07 1.87 0.47 4.31 0.95 5.42 1.07l2.01 0.22c0.45 1.83 0.93 3.5 1.35 4.89 0.42 1.38 1.12 3.31 1.56 4.29 0.44 0.98 1.23 2.41 1.75 3.19 0.52 0.77 1.38 1.67 1.91 1.99 0.52 0.33 1.49 0.67 2.14 0.78 0.88 0.13 1.49 0.03 2.37-0.42 0.65-0.33 1.53-0.97 1.95-1.44 0.42-0.46 1.07-1.37 1.44-2.02 0.37-0.66 1.01-1.99 1.42-2.97 0.42-0.97 1.17-3.23 1.68-5.01l0.92-3.24c4.13-0.61 6.53-1.11 8-1.5 1.46-0.39 4-1.2 5.62-1.81 1.63-0.6 4.37-1.81 6.08-2.68 1.71-0.87 4.51-2.5 6.22-3.61 1.71-1.12 4.31-3.04 5.77-4.27 1.47-1.23 3.86-3.49 5.31-5.02 1.45-1.53 3.4-3.78 4.33-5 0.93-1.23 2.46-3.43 3.41-4.89 0.95-1.47 2.3-3.9 3-5.41 0.71-1.51 1.58-3.66 1.95-4.78 0.37-1.12 0.77-2.12 0.89-2.22 0.12-0.1 0.59 0.07 1.04 0.38 0.44 0.31 2.01 1.17 3.48 1.91 1.46 0.75 3.86 1.76 5.33 2.26 1.46 0.5 3.8 1.11 5.18 1.35 1.39 0.24 4.15 0.44 6.15 0.44 2.14-0.01 4.57-0.2 5.92-0.48 1.27-0.26 3.23-0.83 4.37-1.26 1.14-0.44 3.14-1.46 4.45-2.27 1.3-0.8 3.24-2.33 4.3-3.4 1.07-1.06 2.53-2.8 3.24-3.86 0.72-1.06 1.68-2.72 2.13-3.7 0.46-0.98 1.12-2.85 1.47-4.15 0.51-1.86 0.65-3.22 0.66-6.37 0.01-3.23-0.11-4.48-0.65-6.52-0.36-1.38-1.2-3.65-1.86-5.03-0.66-1.39-1.62-3.12-2.13-3.86-0.51-0.73-1.63-2.16-2.49-3.18-0.86-1.02-1.53-1.91-1.49-1.97 0.04-0.06 1.14-0.53 2.44-1.05 1.31-0.52 3.64-1.62 5.19-2.44 1.55-0.82 4.01-2.33 5.48-3.36 1.46-1.02 3.8-2.85 5.18-4.07 1.39-1.21 3.47-3.33 4.63-4.7 1.16-1.37 2.89-3.69 3.84-5.15 0.95-1.47 2.15-3.6 2.66-4.74 0.52-1.14 1.29-3.08 1.71-4.3 0.42-1.22 0.99-3.49 1.27-5.04 0.32-1.8 0.5-4.25 0.49-6.81-0.01-2.61-0.18-4.78-0.51-6.22-0.27-1.23-0.83-3.23-1.24-4.45-0.41-1.22-1.28-3.22-1.92-4.44-0.65-1.22-1.77-3.02-2.49-4-0.73-0.98-2.35-2.83-3.62-4.11-1.26-1.27-3.1-2.9-4.08-3.6-0.98-0.7-2.91-1.84-4.29-2.53-1.39-0.69-3.39-1.55-4.45-1.92-1.06-0.36-3.06-0.9-4.44-1.2-1.89-0.41-3.74-0.55-7.41-0.54-3.79 0-5.61 0.14-8.14 0.64-1.79 0.36-4.86 1.19-6.81 1.85-1.96 0.67-5.29 2.06-7.41 3.09-2.12 1.04-5.15 2.77-6.74 3.84-1.59 1.08-2.93 1.93-2.99 1.88-0.06-0.04-0.26-1.87-0.45-4.07-0.19-2.2-0.62-5.33-0.95-6.96-0.33-1.63-1.2-4.77-1.93-6.97-0.73-2.2-2.04-5.46-2.91-7.25-0.88-1.8-2.39-4.46-3.35-5.93-0.97-1.47-2.57-3.67-3.56-4.89-0.98-1.22-3.37-3.76-5.3-5.64-1.94-1.88-4.72-4.31-6.18-5.4-1.47-1.09-4-2.78-5.63-3.75-1.63-0.97-3.8-2.14-4.82-2.6-1.85-0.83-1.86-0.84-1.68-1.87 0.09-0.57 0.73-2.44 1.41-4.15 0.69-1.71 1.87-4.11 2.63-5.33 0.75-1.22 2.25-3.26 3.32-4.52 1.08-1.26 2.92-2.98 4.1-3.81 1.18-0.83 2.84-1.86 3.69-2.29 1.45-0.74 1.57-0.76 2.07-0.29 0.3 0.28 1.34 0.88 2.31 1.34 1.52 0.71 2.15 0.83 4.3 0.83 2.21-0.01 2.73-0.12 4.26-0.89 0.95-0.49 2.25-1.46 2.88-2.15 0.64-0.69 1.44-1.82 1.8-2.52 0.46-0.91 0.68-1.95 0.77-3.77 0.1-2.1 0.01-2.82-0.55-4.3-0.46-1.23-1.14-2.24-2.18-3.27-0.82-0.82-2.17-1.82-2.98-2.21-1.21-0.58-1.95-0.71-4-0.72-2 0-2.83 0.14-4 0.67-0.81 0.37-1.94 1.04-2.51 1.47-0.56 0.44-1.4 1.4-1.86 2.13-0.46 0.74-1.03 2-1.27 2.82-0.43 1.46-0.47 1.5-2.73 2.51-1.26 0.57-3.43 1.78-4.81 2.71-1.39 0.92-3.66 2.86-5.05 4.3-1.39 1.45-3.21 3.63-4.03 4.85-0.83 1.22-2.01 3.22-2.62 4.44-0.62 1.23-1.7 3.96-2.4 6.08-0.86 2.6-1.4 3.81-1.66 3.74-0.21-0.06-1.92-0.49-3.79-0.95-1.88-0.47-4.98-1.05-6.89-1.3-2.01-0.26-5.73-0.46-8.81-0.46-3.09 0-6.8 0.2-8.82 0.46-1.91 0.25-5.01 0.84-6.88 1.3-1.88 0.47-3.61 0.93-3.85 1.04-0.35 0.15-0.56-0.25-0.97-1.82-0.28-1.11-0.9-3.01-1.36-4.23-0.47-1.23-1.22-2.96-1.67-3.86-0.45-0.89-1.55-2.76-2.44-4.14-0.99-1.54-2.85-3.74-4.78-5.65-2.06-2.05-4.02-3.67-5.67-4.68-1.38-0.85-3.28-1.84-4.21-2.2-1.61-0.62-1.72-0.73-2.03-1.99-0.18-0.74-0.57-1.8-0.86-2.37-0.29-0.57-1.18-1.63-1.97-2.36-0.8-0.72-2.04-1.58-2.78-1.89-0.73-0.32-2.13-0.63-3.11-0.68-0.97-0.06-2.37 0.06-3.11 0.27z"/>
		<path id="Path 2" class="s1" d="m140.14 65.36c-1.3 0.16-3.9 0.63-5.78 1.05-1.87 0.42-4.4 1.1-5.62 1.51-1.23 0.41-3.36 1.23-4.74 1.83-1.39 0.59-3.79 1.78-5.34 2.64-1.54 0.86-4.08 2.45-5.62 3.55-1.62 1.14-4.6 3.76-6.98 6.13-2.92 2.92-4.74 5.03-6.12 7.12-1.09 1.62-2.7 4.42-3.59 6.22-0.89 1.79-2.04 4.46-2.55 5.92-0.52 1.47-1.27 4.27-1.68 6.23-0.5 2.43-0.79 4.99-0.91 8.14-0.11 2.88-0.04 5.59 0.18 7.26 0.19 1.47 0.66 3.94 1.05 5.48 0.38 1.55 1.25 4.22 1.93 5.93 0.68 1.71 1.81 4.18 2.52 5.48 0.71 1.31 2.13 3.56 3.16 5.02 1.03 1.45 3.21 4.03 4.84 5.74 1.63 1.71 4.03 3.96 5.33 5.01 1.3 1.04 3.5 2.61 4.89 3.47 1.38 0.86 3.58 2.1 4.89 2.75 1.3 0.65 3.63 1.67 5.18 2.25 1.55 0.59 4.01 1.41 5.48 1.82 1.47 0.4 4.27 1.04 6.22 1.41 3.1 0.58 4.5 0.66 10.96 0.66 6.78-0.01 7.75-0.08 11.41-0.8 2.2-0.43 5.46-1.25 7.25-1.83 1.8-0.59 5.13-1.98 7.41-3.1 2.28-1.12 5.21-2.74 6.52-3.6 1.3-0.85 2.97-2.03 3.7-2.61 0.73-0.59 2.39-2 3.68-3.14 1.29-1.15 3.35-3.29 4.57-4.75 1.22-1.47 3.01-3.87 3.98-5.34 0.96-1.46 2.32-3.86 3.02-5.33 0.69-1.47 1.61-3.73 2.03-5.04 0.43-1.3 1.04-3.5 1.37-4.88 0.32-1.39 0.74-4.12 0.92-6.08 0.23-2.56 0.23-4.61 0-7.33-0.17-2.08-0.58-5.01-0.91-6.52-0.33-1.51-1.01-4.01-1.51-5.56-0.51-1.54-1.49-4.01-2.18-5.48-0.68-1.46-1.99-3.86-2.9-5.33-0.92-1.47-2.52-3.73-3.57-5.04-1.05-1.3-3.06-3.47-4.47-4.81-1.4-1.35-3.94-3.48-5.64-4.74-1.7-1.27-4.54-3.1-6.3-4.07-1.76-0.98-4.4-2.27-5.87-2.87-1.46-0.6-4.26-1.58-6.22-2.17-1.95-0.59-5.15-1.34-7.11-1.67-2.38-0.4-5.35-0.64-9.03-0.71-3.01-0.06-6.55 0.02-7.85 0.18zm-93.75 48.85c-1.06 0.14-2.8 0.48-3.86 0.75-1.05 0.28-2.72 0.87-3.7 1.31-0.98 0.44-2.64 1.39-3.7 2.11-1.06 0.71-2.51 1.84-3.22 2.5-0.71 0.66-1.93 2.06-2.72 3.12-0.78 1.06-1.95 3.06-2.6 4.44-0.65 1.39-1.38 3.46-1.63 4.6-0.25 1.14-0.54 2.94-0.65 4-0.11 1.06-0.05 3.19 0.14 4.74 0.19 1.55 0.73 3.98 1.21 5.41 0.49 1.42 1.39 3.62 2.03 4.88 0.63 1.27 1.95 3.37 2.94 4.67 0.98 1.3 2.7 3.26 3.81 4.35 1.11 1.09 3.29 2.92 4.84 4.07 1.54 1.16 4.34 2.89 6.22 3.86 1.87 0.97 4.6 2.22 6.07 2.79 1.47 0.56 4.33 1.45 6.37 1.98 2.03 0.52 4.07 1.13 4.52 1.36 0.44 0.22 1.08 0.84 1.4 1.37 0.33 0.53 0.59 1.43 0.59 2 0 0.57-0.26 1.47-0.59 2-0.41 0.67-1.2 1.24-2.59 1.88-1.1 0.5-2.6 1.33-3.33 1.83-0.73 0.51-2.12 1.66-3.08 2.57-0.96 0.9-2.4 2.64-3.2 3.87-0.8 1.22-1.73 3.09-2.07 4.14-0.36 1.16-0.67 3.12-0.76 4.89-0.11 2.18-0.02 3.47 0.34 4.89 0.27 1.06 0.9 2.8 1.42 3.85q0.93 1.93 3.03 4.03 2.1 2.1 4.02 3.03c1.06 0.51 2.79 1.16 3.85 1.45 1.34 0.35 2.97 0.5 5.33 0.48 2.77-0.02 3.9-0.17 6-0.8 1.43-0.43 3.56-1.26 4.74-1.85 1.18-0.59 3.35-1.86 4.82-2.81l2.66-1.73c-0.78-4.26-1.16-7.1-1.36-9.05-0.21-2.2-0.28-5.48-0.16-8.6 0.1-2.77 0.38-6.37 0.63-8 0.25-1.63 0.87-4.63 1.37-6.66 0.5-2.04 1.45-5.17 2.11-6.97 0.65-1.79 1.99-4.86 2.97-6.81 0.98-1.96 2.69-4.99 3.81-6.74l2.04-3.19c-3.59-4.71-5.42-7.41-6.38-9.03-0.96-1.63-2.31-4.3-3-5.93-0.69-1.63-1.69-4.4-2.23-6.16l-0.98-3.2c-5.51-4.51-8.44-6.69-10.07-7.77-1.63-1.07-4.63-2.74-6.67-3.71-2.04-0.98-5.03-2.18-6.66-2.68-1.63-0.49-3.77-1.03-4.74-1.2-0.98-0.16-3.05-0.36-4.59-0.43-1.55-0.08-3.69-0.03-4.74 0.1zm193.58 0.21c-0.49 0.08-1.89 0.39-3.11 0.69-1.23 0.31-3.22 0.92-4.45 1.36-1.22 0.43-3.75 1.56-5.63 2.5-1.87 0.93-4.6 2.51-6.07 3.49-1.46 0.99-3.54 2.51-4.62 3.37-1.07 0.87-2.62 2.18-3.44 2.91-1.43 1.27-1.56 1.53-2.82 5.33-0.73 2.2-1.98 5.34-2.77 6.97-0.8 1.63-2.16 4.09-3.04 5.48-0.87 1.38-2.46 3.65-3.53 5.04-1.83 2.35-1.92 2.56-1.53 3.17 0.23 0.36 1.31 2.09 2.38 3.85 1.08 1.76 2.45 4.16 3.04 5.35 0.59 1.18 1.62 3.51 2.29 5.18 0.67 1.67 1.65 4.57 2.19 6.45 0.54 1.87 1.32 5.4 1.73 7.85 0.41 2.44 0.84 6.18 0.95 8.29 0.11 2.23 0.06 5.61-0.14 8-0.19 2.29-0.62 5.55-0.96 7.26l-0.62 3.11c1.4 1.15 2.85 2.12 4.13 2.89 1.27 0.77 3.45 1.86 4.84 2.43 1.38 0.56 3.38 1.26 4.44 1.54 1.23 0.33 3.05 0.52 5.04 0.52 2.03 0.01 3.77-0.16 5.03-0.5 1.06-0.28 2.93-1 4.15-1.6 1.52-0.75 2.83-1.7 4.16-3.04 1.24-1.23 2.29-2.64 2.88-3.87 0.52-1.05 1.15-2.72 1.4-3.7 0.25-0.98 0.45-2.84 0.44-4.15 0-1.3-0.21-3.23-0.46-4.29-0.24-1.06-0.94-2.92-1.55-4.13-0.62-1.24-1.87-3.03-2.87-4.12-0.98-1.05-2.58-2.49-3.56-3.18-0.97-0.7-2.77-1.73-4-2.3-1.22-0.56-2.5-1.33-2.85-1.72-0.35-0.39-0.71-1-0.81-1.37-0.1-0.37-0.05-1.2 0.11-1.85 0.17-0.68 0.65-1.47 1.11-1.86 0.51-0.42 2.24-1.03 4.67-1.66 2.11-0.54 5.11-1.45 6.66-2.02 1.55-0.57 4.35-1.83 6.22-2.8 1.88-0.96 4.67-2.65 6.21-3.74 1.54-1.1 3.88-3.06 5.19-4.36 1.32-1.31 3.09-3.31 3.95-4.45 0.86-1.14 2.29-3.54 3.18-5.33 0.89-1.8 1.82-4.06 2.06-5.04 0.25-0.98 0.59-3.04 0.76-4.59 0.22-1.95 0.22-3.59 0.01-5.34-0.17-1.38-0.59-3.45-0.94-4.59-0.35-1.14-1.22-3.21-1.94-4.59-0.71-1.39-2-3.38-2.85-4.42-0.86-1.05-2.49-2.63-3.63-3.5-1.14-0.88-3.14-2.11-4.44-2.74-1.31-0.64-3.17-1.38-4.15-1.65-1.25-0.35-3.24-0.52-6.67-0.58-2.69-0.05-5.28-0.03-5.77 0.05zm-139.42 49.36c-1.08 1.83-2.23 3.86-2.55 4.52-0.33 0.65-1.21 2.75-1.96 4.66-0.75 1.92-1.37 3.55-1.37 3.63 0 0.08 1.17 0.7 2.59 1.38 1.43 0.67 4.33 1.92 6.44 2.77 2.12 0.85 5.72 2.16 8 2.9 2.28 0.74 6.28 1.83 8.89 2.41 2.61 0.58 6.47 1.31 8.59 1.64 2.12 0.32 5.45 0.72 7.41 0.89 1.95 0.17 6.92 0.3 11.03 0.31 4.11 0 9.11-0.14 11.11-0.32 1.99-0.17 5.56-0.63 7.92-1.03 2.36-0.39 6.03-1.1 8.15-1.59 2.12-0.48 5.45-1.36 7.4-1.95 1.96-0.6 4.82-1.56 6.37-2.14 1.55-0.57 4.68-1.9 6.96-2.94 2.28-1.04 4.28-2.03 4.45-2.2q0.29-0.3-0.4-2.29c-0.38-1.09-1.39-3.45-2.25-5.24-0.85-1.8-2.3-4.5-3.23-6l-1.68-2.75c-1.72 1.23-2.75 2.01-3.4 2.52-0.66 0.52-2.19 1.61-3.41 2.43-1.22 0.82-3.42 2.17-4.89 2.99-1.46 0.83-4.13 2.13-5.92 2.88-1.79 0.76-4.73 1.82-6.52 2.37-1.79 0.54-4.66 1.28-6.37 1.63-1.71 0.35-4.77 0.83-6.81 1.06-2.04 0.23-5.3 0.42-7.26 0.42-1.95 0-5.09-0.14-6.96-0.3-1.87-0.16-4.81-0.55-6.52-0.88-1.71-0.32-4.31-0.92-5.77-1.34-1.47-0.42-4-1.26-5.63-1.85-1.63-0.6-4.56-1.9-6.52-2.89-1.95-0.99-4.75-2.58-6.22-3.53-1.46-0.95-3.76-2.58-5.11-3.62-1.34-1.04-2.48-1.88-2.52-1.88-0.04 0-0.96 1.5-2.04 3.33zm-8.41 28.74c-0.11 1.83-0.12 4.67-0.01 6.29 0.11 1.63 0.26 3.4 0.34 3.93 0.11 0.83 0.36 1.08 1.83 1.81 0.94 0.47 3.37 1.52 5.41 2.35 2.03 0.82 5.3 2.02 7.25 2.67 1.96 0.64 5.69 1.72 8.3 2.38 2.6 0.67 6.07 1.49 7.7 1.82 1.63 0.34 4.96 0.87 7.4 1.18 2.45 0.32 6.51 0.73 9.04 0.93 2.85 0.21 7.29 0.28 11.7 0.17 3.91-0.09 8.44-0.31 10.07-0.49 1.63-0.18 5.23-0.71 8-1.19 2.77-0.48 6.64-1.27 8.59-1.75 1.96-0.48 5.15-1.36 7.11-1.95 1.95-0.6 5.49-1.83 7.85-2.73 2.36-0.91 5.53-2.24 7.03-2.95l2.74-1.29c0.34-2.18 0.44-5.37 0.44-8.49 0.01-3.12-0.09-5.79-0.21-5.93-0.12-0.13-1.72 0.45-3.55 1.29-1.84 0.85-4.07 1.83-4.97 2.18-0.9 0.35-3.3 1.22-5.33 1.94-2.04 0.71-5.64 1.82-8 2.46-2.36 0.64-6.03 1.52-8.15 1.96-2.11 0.43-5.65 1.04-7.85 1.35-2.2 0.31-6.53 0.71-9.62 0.9-3.24 0.19-7.77 0.25-10.67 0.14-2.77-0.11-7.03-0.39-9.48-0.62-2.44-0.23-6.37-0.75-8.73-1.15-2.37-0.4-6.03-1.13-8.15-1.62-2.12-0.49-5.18-1.28-6.81-1.75-1.63-0.47-4.9-1.56-7.26-2.42-2.36-0.86-5.9-2.28-7.85-3.16-1.96-0.88-3.64-1.6-3.75-1.6-0.11 0-0.29 1.51-0.41 3.34zm3.96 25.59c0.03 0.06 0.86 1.81 1.84 3.89 0.99 2.08 2.78 5.24 3.99 7.04 1.2 1.79 3.23 4.42 4.5 5.85 1.27 1.42 3.38 3.53 4.68 4.67 1.3 1.15 3.5 2.89 4.89 3.88 1.38 0.99 3.65 2.41 5.03 3.17 1.39 0.75 3.99 1.94 5.78 2.65 1.79 0.7 4.46 1.6 5.92 2 1.47 0.39 4.07 0.92 5.78 1.17 1.97 0.29 5.26 0.45 8.96 0.46 3.75 0 6.94-0.16 8.89-0.45 1.67-0.25 4.37-0.81 6-1.23 1.63-0.42 3.96-1.16 5.18-1.64 1.22-0.48 3.76-1.67 5.63-2.64 1.87-0.97 4.67-2.66 6.22-3.75 1.55-1.09 4.5-3.66 6.55-5.7 2.06-2.03 4.57-4.84 5.59-6.22 1.02-1.39 2.55-3.72 3.4-5.19 0.85-1.46 2-3.69 2.56-4.95 0.55-1.26 0.94-2.36 0.86-2.43-0.08-0.08-1.55 0.43-3.26 1.13-1.71 0.7-4.91 1.91-7.11 2.67-2.2 0.77-6.13 1.92-8.74 2.56-2.61 0.64-6.67 1.49-9.03 1.89-2.37 0.4-6.3 0.96-8.74 1.23-3.21 0.37-6.92 0.51-13.33 0.52-6.45 0-10.15-0.14-13.48-0.51-2.53-0.28-6.52-0.83-8.89-1.24-2.36-0.4-6.22-1.2-8.59-1.78-2.36-0.59-6.83-1.9-9.92-2.93-3.1-1.03-6.88-2.4-8.42-3.05-1.53-0.65-2.77-1.14-2.74-1.07z"/>
		<path id="Path 3" class="s0" d="m119.11 99.21c-0.83 0.38-1.97 1.26-2.6 2-0.62 0.72-1.33 1.98-1.59 2.79-0.32 0.97-0.44 2.14-0.36 3.41 0.08 1.26 0.38 2.42 0.86 3.37 0.4 0.8 1.26 1.9 1.91 2.45 0.65 0.55 1.79 1.2 2.52 1.45 0.73 0.24 1.9 0.44 2.59 0.43 0.69 0 1.96-0.26 2.81-0.57 1.12-0.41 1.96-1.02 2.98-2.15 0.79-0.87 1.61-2.17 1.85-2.91 0.24-0.73 0.44-2 0.44-2.81 0-0.82-0.24-2.13-0.52-2.93-0.29-0.79-0.99-1.98-1.56-2.64-0.57-0.66-1.7-1.51-2.52-1.89-1.07-0.49-2.02-0.69-3.41-0.69-1.38 0-2.33 0.2-3.4 0.69zm50.06 0.02c-0.81 0.4-1.94 1.23-2.5 1.86-0.55 0.62-1.28 1.73-1.61 2.47q-0.59 1.33-0.59 3.25c0 1.3 0.2 2.37 0.6 3.26 0.33 0.74 0.99 1.79 1.46 2.34 0.47 0.55 1.46 1.34 2.2 1.76 0.92 0.53 1.91 0.8 3.25 0.89 1.57 0.1 2.23-0.01 3.53-0.58 0.97-0.42 2.09-1.24 2.82-2.05 0.76-0.85 1.41-1.99 1.77-3.11 0.39-1.23 0.51-2.26 0.41-3.39-0.09-0.9-0.42-2.17-0.75-2.82-0.33-0.65-0.98-1.64-1.44-2.2-0.47-0.56-1.52-1.32-2.34-1.7-1.06-0.49-2.02-0.69-3.4-0.69-1.45-0.01-2.3 0.17-3.41 0.71zm-42.5 26.16c-0.57 0.29-1.34 1-1.71 1.57-0.49 0.74-0.68 1.47-0.68 2.52 0 1.1 0.26 2.02 1.03 3.56 0.57 1.14 1.61 2.76 2.3 3.61 0.7 0.85 1.94 2.11 2.76 2.82 0.81 0.7 2.28 1.76 3.26 2.37 0.97 0.6 2.84 1.49 4.14 1.97 1.3 0.48 3.5 1.11 4.89 1.39 1.93 0.39 3.34 0.47 6.07 0.34 2.17-0.1 4.42-0.4 5.78-0.77 1.22-0.34 3.22-1.09 4.44-1.68 1.22-0.58 3.02-1.63 4-2.33 0.98-0.7 2.62-2.18 3.65-3.31 1.07-1.17 2.31-2.93 2.89-4.12 0.56-1.14 1.09-2.67 1.18-3.4 0.13-1.04 0.02-1.63-0.52-2.67-0.53-1.04-0.98-1.45-2.02-1.89q-1.33-0.55-2.37-0.38c-0.57 0.1-1.5 0.49-2.07 0.86-0.8 0.53-1.24 1.19-1.91 2.9-0.68 1.73-1.26 2.6-2.67 4.01-0.99 1-2.52 2.15-3.42 2.58-0.89 0.44-2.43 0.99-3.41 1.25-0.99 0.25-3.01 0.45-4.59 0.44-1.54 0-3.64-0.2-4.66-0.44-1.02-0.24-2.55-0.79-3.41-1.22-0.85-0.42-2.14-1.26-2.86-1.85-0.72-0.59-1.66-1.61-2.1-2.26-0.43-0.65-1.11-1.98-1.5-2.94-0.42-1.03-1.09-2.04-1.61-2.44-0.53-0.41-1.49-0.75-2.37-0.86-1.11-0.12-1.74-0.03-2.51 0.37z"/>
		<path id="BuzzahBuddy" class="s0" aria-label="BuzzahBuddy"  d="m387.5 147.3q8.9 3.1 12.7 8.1 4.1 5 4.1 12.9 0 15.7-11.8 23.8-11.7 7.9-36 7.9-13.8 0-26.7-0.7h-0.2l4.9-29.9 7.6-70.2 33.6-0.1q13.8 0 21.7 5.6 8 5.6 8 16.3 0 8.9-4.7 15.7-4.5 6.9-13.2 10.6zm-17-5.3q6.9-1.7 10.2-5.9 3.4-4.4 3.4-11.5 0-5.8-3.6-8.3-3.6-2.4-12.3-2.4h-7.8l-3.9 27.6zm-9 43.3q10.4 0 16.2-4.4 5.8-4.5 5.8-12.4 0-5.3-3.2-8.3-2.9-2.9-9.1-4.2l-16.8 0.4-1.6 11.2-1.7 17.1q7.8 0.6 10.4 0.6zm129.3-64.6l-5.5 40-1.5 12q-1.7 13.4-10.9 20.7-9.2 7.1-25.2 7.1-14.3 0-22.3-5.7-7.7-5.9-7.7-16.8 0-2.5 0.4-5.3l1.7-12.3 4.6-39.7h18.9l-7 49.2q-0.3 2.5-0.3 3.4 0 11.8 13.5 11.8 15.3 0 16.8-15.2l5.3-49.2zm76.4 0l-1.7 13.9-45.3 50.4h25.2l14.8-1.4 0.6 0.9-3.6 15.3-19.7-0.5h-31.3l-10.4 0.5 1.7-13.6 45.7-50.8h-24.5l-14.2 1.4-0.5-1.1 3.3-15.1zm73.6 0l-1.7 13.8-45.3 50.4h25.2l14.8-1.4 0.6 1-3.6 15.2-19.7-0.5h-31.3l-10.4 0.5 1.7-13.5 45.7-50.9h-24.5l-14.2 1.4-0.5-1.1 3.3-15.1zm58.5 0l14.7 78.6h-19.1l-0.4-11.1-0.8-4.9-15.7-0.4-13.7 0.4-1.9 3.8-3.9 12.2h-18.5l36.9-78.6zm-18.4 48.2l10.3-0.1-5.1-30.7h-1.3l-14 30.7zm108.4-48.2h19.3l-7.6 53.5-2.4 25h-18.9l3.7-23.3 0.8-7.9-32.8 0.1-1 6.1-2.1 25h-19l3.7-23.3 5.9-55.2h19.3l-4.5 31.4 16.5 0.1 15.7-0.1zm90.7 26.6q8.8 3.1 12.7 8.1 4.1 5 4.1 12.9 0 15.7-11.9 23.8-11.6 7.9-35.9 7.9-13.8 0-26.7-0.8h-0.2l4.8-29.8 7.7-70.2 33.5-0.1q13.9 0 21.8 5.6 7.9 5.6 7.9 16.3 0 8.9-4.6 15.7-4.5 6.9-13.2 10.6zm-17-5.3q6.9-1.7 10.1-5.9 3.4-4.4 3.4-11.5 0-5.8-3.5-8.3-3.6-2.5-12.3-2.5h-7.8l-3.9 27.7zm-9 43.3q10.4 0 16.2-4.4 5.7-4.5 5.7-12.4 0-5.3-3.1-8.3-2.9-2.9-9.2-4.2l-16.8 0.3-1.5 11.2-1.7 17.2q7.7 0.6 10.4 0.6zm129.2-64.6l-5.4 40-1.6 12q-1.7 13.4-10.9 20.7-9.1 7.1-25.2 7.1-14.3 0-22.2-5.7-7.8-5.9-7.8-16.8 0-2.5 0.5-5.3l1.7-12.3 4.5-39.7h19l-7 49.2q-0.3 2.5-0.3 3.4 0 11.8 13.5 11.8 15.3 0 16.8-15.2l5.3-49.2zm53.2-0.4q16 0 24.9 8 8.8 8.1 8.8 23.1 0 23-11.9 35.9-12 12.9-34.3 12.9-12.6 0-30-0.9l3.8-23.4 6-55.2zm-8.4 65.4q10.6 0 16.4-7.5 5.7-7.6 5.7-23.5 0-10-4-14.5-4.1-4.6-12.2-4.6-7.3 0-13 0.6l-5.6 38.1-1 10.4 4.4 0.3q7.2 0.7 9.3 0.7zm95.1-65.4q16 0 24.8 8.1 8.9 8.1 8.9 23 0 23.1-12 36-12 12.9-34.2 12.9-12.6 0-30-1l3.7-23.3 6.1-55.2zm-8.4 65.3q10.6 0 16.3-7.4 5.8-7.7 5.8-23.5 0-10-4.1-14.5-4-4.7-12.1-4.7-7.3 0-13.1 0.7l-5.6 38.1-0.9 10.4 4.4 0.3q7.1 0.6 9.3 0.6zm120.5-64.8l-35.3 53-0.8 4-2 21.5h-19l3.6-21.5 0.5-4-19.6-53h20.2l1.1 5.7 9.3 27.9h1.3l17.7-27.1 3.3-6.5z"/>
	</g>
</svg>