<svg version="1.2" xmlns="http://www.w3.org/2000/svg" viewBox="0 0 1250 300" width="1250" height="300">
	<style>
		.s0 { fill: #052534 } 
		.s1 { opacity: 1;fill: #062634 } 
		.s2 { opacity: 1;fill: #33b5f0 } 
	</style>
	<g id="Background">
		<path id="BuzzahBuddy" class="s0" aria-label="BuzzahBuddy"  d="m337.5 147.3q8.9 3.1 12.7 8.1 4.1 5 4.1 12.9 0 15.7-11.8 23.8-11.7 7.9-36 7.9-13.8 0-26.7-0.7h-0.2l4.9-29.9 7.6-70.2 33.6-0.1q13.8 0 21.7 5.6 8 5.6 8 16.3 0 8.9-4.7 15.7-4.5 6.9-13.2 10.6zm-17-5.3q6.9-1.7 10.2-5.9 3.4-4.4 3.4-11.5 0-5.8-3.6-8.3-3.6-2.4-12.3-2.4h-7.8l-3.9 27.6zm-9 43.3q10.4 0 16.2-4.4 5.8-4.5 5.8-12.4 0-5.3-3.2-8.3-2.9-2.9-9.1-4.2l-16.8 0.4-1.6 11.2-1.7 17.1q7.8 0.6 10.4 0.6zm129.3-64.6l-5.5 40-1.5 12q-1.7 13.4-10.9 20.7-9.2 7.1-25.2 7.1-14.3 0-22.3-5.7-7.7-5.9-7.7-16.8 0-2.5 0.4-5.3l1.7-12.3 4.6-39.7h18.9l-7 49.2q-0.3 2.5-0.3 3.4 0 11.8 13.5 11.8 15.3 0 16.8-15.2l5.3-49.2zm76.4 0l-1.7 13.9-45.3 50.4h25.2l14.8-1.4 0.6 0.9-3.6 15.3-19.7-0.5h-31.3l-10.4 0.5 1.7-13.6 45.7-50.8h-24.5l-14.2 1.4-0.5-1.1 3.3-15.1zm73.6 0l-1.7 13.8-45.3 50.4h25.2l14.8-1.4 0.6 1-3.6 15.2-19.7-0.5h-31.3l-10.4 0.5 1.7-13.5 45.7-50.9h-24.5l-14.2 1.4-0.5-1.1 3.3-15.1zm58.5 0l14.7 78.6h-19.1l-0.4-11.1-0.8-4.9-15.7-0.4-13.7 0.4-1.9 3.8-3.9 12.2h-18.5l36.9-78.6zm-18.4 48.2l10.3-0.1-5.1-30.7h-1.3l-14 30.7zm108.4-48.2h19.3l-7.6 53.5-2.4 25h-18.9l3.7-23.3 0.8-7.9-32.8 0.1-1 6.1-2.1 25h-19l3.7-23.3 5.9-55.2h19.3l-4.5 31.4 16.5 0.1 15.7-0.1zm90.7 26.6q8.8 3.1 12.7 8.1 4.1 5 4.1 12.9 0 15.7-11.9 23.8-11.6 7.9-35.9 7.9-13.8 0-26.7-0.8h-0.2l4.8-29.8 7.7-70.2 33.5-0.1q13.9 0 21.8 5.6 7.9 5.6 7.9 16.3 0 8.9-4.6 15.7-4.5 6.9-13.2 10.6zm-17-5.3q6.9-1.7 10.1-5.9 3.4-4.4 3.4-11.5 0-5.8-3.5-8.3-3.6-2.5-12.3-2.5h-7.8l-3.9 27.7zm-9 43.3q10.4 0 16.2-4.4 5.7-4.5 5.7-12.4 0-5.3-3.1-8.3-2.9-2.9-9.2-4.2l-16.8 0.3-1.5 11.2-1.7 17.2q7.7 0.6 10.4 0.6zm129.2-64.6l-5.4 40-1.6 12q-1.7 13.4-10.9 20.7-9.1 7.1-25.2 7.1-14.3 0-22.2-5.7-7.8-5.9-7.8-16.8 0-2.5 0.5-5.3l1.7-12.3 4.5-39.7h19l-7 49.2q-0.3 2.5-0.3 3.4 0 11.8 13.5 11.8 15.3 0 16.8-15.2l5.3-49.2zm53.2-0.4q16 0 24.9 8 8.8 8.1 8.8 23.1 0 23-11.9 35.9-12 12.9-34.3 12.9-12.6 0-30-0.9l3.8-23.4 6-55.2zm-8.4 65.4q10.6 0 16.4-7.5 5.7-7.6 5.7-23.5 0-10-4-14.5-4.1-4.6-12.2-4.6-7.3 0-13 0.6l-5.6 38.1-1 10.4 4.4 0.3q7.2 0.7 9.3 0.7zm95.1-65.4q16 0 24.8 8.1 8.9 8.1 8.9 23 0 23.1-12 36-12 12.9-34.2 12.9-12.6 0-30-1l3.7-23.3 6.1-55.2zm-8.4 65.3q10.6 0 16.3-7.4 5.8-7.7 5.8-23.5 0-10-4.1-14.5-4-4.7-12.1-4.7-7.3 0-13.1 0.7l-5.6 38.1-0.9 10.4 4.4 0.3q7.1 0.6 9.3 0.6zm120.5-64.8l-35.3 53-0.8 4-2 21.5h-19l3.6-21.5 0.5-4-19.6-53h20.2l1.1 5.7 9.3 27.9h1.3l17.7-27.1 3.3-6.5z"/>
		<g id="Glove">
			<path id="Path 0" class="s1" d="m157.21 26.93c1.48 0.42 4.18 1.56 6 2.54 1.82 0.97 4.33 2.72 5.58 3.9 1.25 1.17 2.26 2.69 2.25 3.38-0.01 0.69-0.7 1.25-1.53 1.25-0.82 0-2.73-1.08-4.25-2.39-1.51-1.31-5.22-3.18-8.25-4.14-4.2-1.33-6.8-1.56-11-0.95q-5.5 0.8-10.5 4.19c-2.75 1.86-5.56 3.14-6.25 2.84-0.75-0.33-0.95-1.19-0.5-2.15 0.42-0.89 2.78-2.87 5.25-4.41 2.48-1.55 6.3-3.3 8.5-3.89 2.2-0.6 5.8-1.05 8-1.01 2.2 0.05 5.22 0.43 6.7 0.84zm-0.79 19.34c2.15 1.22 4.76 3.36 5.81 4.73 1.05 1.38 2.22 4.64 2.6 7.26 0.37 2.62 1.02 4.76 1.43 4.75 0.42 0 1.43-1.13 2.25-2.51 0.83-1.38 3.42-3.39 5.75-4.48 2.34-1.09 5.15-1.98 6.25-1.98 1.1-0.01 3.8 0.88 6 1.96 2.2 1.08 5.13 3.63 6.5 5.66l2.5 3.69 1 89.15c8.14-13.56 11.74-18.34 13.25-19.36 1.52-1.02 4.1-2.09 5.75-2.38 1.65-0.29 4.35-0.14 6 0.32 1.65 0.47 4.35 2.24 6 3.95 2.62 2.71 3 3.83 3 8.79 0 4.79-1.31 8.96-8.4 26.68-4.63 11.55-9.77 23.47-11.42 26.5-1.66 3.03-5.56 9.32-8.69 14-3.12 4.68-6.27 9.62-7 11-0.74 1.37-1.59 4.18-1.91 6.23-0.32 2.05-0.24 3.74 0.17 3.75 0.42 0.01 1.66 1.03 2.77 2.27 1.82 2.02 2.02 3.6 2 15.5-0.01 7.29-0.5 14.26-1.08 15.5-0.59 1.24-2.28 3.15-3.75 4.25-2.58 1.92-4.45 2.01-48.44 2.25-39.01 0.21-46.19 0.03-48.75-1.25-1.65-0.82-3.89-2.96-4.99-4.75-1.72-2.8-2-5.01-2-16l-0.01-12.75c5.51-5.5 5.9-6.54 5.4-9.25-0.33-1.79-2.07-6.63-3.86-10.75-1.79-4.13-3.96-9.97-4.82-13-0.85-3.03-2.04-8.88-2.62-13-0.59-4.13-1.52-15.15-2.06-24.5-0.54-9.35-1.56-29.49-2.26-44.76l-1.28-27.76c3.48-6.57 5.84-9.27 7.49-10.23 1.66-0.96 4.93-1.74 7.26-1.72 2.95 0.02 5.25 0.78 7.5 2.5l3.25 2.47c0.76-5.81 0.99-10.31 0.99-13.75 0.01-3.53 0.67-7.55 1.51-9.25 0.83-1.65 3.16-4.24 5.18-5.75 2.9-2.17 4.74-2.74 8.75-2.71 3.43 0.02 5.93 0.67 7.73 2 1.46 1.08 3.32 3.08 4.13 4.46 1.43 2.43 1.49 2.34 2.08-3.5 0.39-3.83 1.43-7.16 2.87-9.21 1.25-1.77 3.84-4.11 5.76-5.22 1.93-1.1 5.08-2.01 7-2.02 1.93-0.01 5.26 0.99 7.41 2.22z"/>
			<path id="Path 1" class="s2" d="m152.76 53.49c1.24 0.83 2.76 2.52 3.39 3.76 0.73 1.46 1.34 14.25 1.75 36.58 0.59 32.81 0.7 34.39 2.61 35.77 1.1 0.79 2.79 1.43 3.75 1.42 0.97-0.01 2.4-1.03 3.2-2.27 1.03-1.61 2.02-10.52 3.45-31.25 1.73-25.01 2.26-29.34 3.9-31.5 1.31-1.71 3.06-2.6 5.59-2.8 3.08-0.26 4.02 0.16 5.68 2.5 1.88 2.62 2.01 4.49 2.1 29.8 0.05 14.85 0.38 37.35 0.72 50l0.61 23c4.93 0.51 6.62-0.02 7.71-1.19 0.94-0.99 4.77-6.9 8.5-13.11 3.74-6.22 7.99-12.07 9.45-13 2.5-1.6 2.8-1.6 5.25 0.05 1.9 1.28 2.59 2.62 2.6 5 0 1.79-3.87 12.69-8.6 24.25-4.73 11.55-9.41 22.57-10.4 24.5-0.99 1.93-5.13 8.45-9.19 14.5-4.4 6.55-7.92 13.02-8.7 16-0.73 2.75-1.51 5.79-1.72 6.75-0.37 1.63-3.14 1.75-40.9 1.75h-40.5c-0.02-4.26-2.02-10.45-4.45-16.5-2.43-6.05-5.12-13.47-5.98-16.5-0.86-3.03-2.01-11.13-2.54-18-0.54-6.88-1.43-21.05-1.99-31.5-0.56-10.45-1.33-27.1-1.7-37-0.68-17.6-0.64-18.05 1.49-20.25 1.19-1.24 3.07-2.25 4.17-2.25 1.1 0 2.9 0.45 4 1 1.1 0.55 2.44 2.46 2.97 4.25 0.53 1.79 1.41 7.75 1.96 13.25 0.55 5.5 1.3 12.7 1.67 16 0.37 3.3 1.07 6.79 1.54 7.75 0.48 0.96 1.88 1.76 3.11 1.77 1.24 0.01 2.82-0.56 3.52-1.25 0.97-0.97 1.26-8.64 1.23-32.77-0.05-31.46-0.04-31.5 2.23-33.78 1.65-1.66 3.21-2.21 5.68-2q3.39 0.29 5.24 2.78c1.55 2.11 2.07 6.33 3.34 27 0.82 13.47 1.74 26.53 2.03 29 0.39 3.34 1.1 4.79 2.76 5.61 1.4 0.7 2.96 0.77 4.22 0.21 1.83-0.82 2.07-2.25 2.75-16.61 0.41-8.64 0.75-24.37 0.75-34.96 0-15.11 0.33-19.9 1.5-22.25 0.83-1.65 2.63-3.45 4-4 1.38-0.55 2.84-1 3.25-1.01 0.42 0 1.77 0.67 3 1.5zm37.75 189.18c0.46 0.36 0.78 4.98 0.7 10.25-0.11 7.76-0.47 9.91-1.91 11.3-1.63 1.58-5.49 1.73-45.46 1.75-37.49 0.03-43.91-0.18-45.25-1.47-1.24-1.18-1.58-3.76-1.58-12v-10.5c71.82 0 93.05 0.3 93.5 0.67z"/>
			<path id="Path 2" class="s1" d="m158.51 36.58c1.65 0.86 3.81 2.32 4.79 3.24 0.98 0.92 1.76 2.24 1.75 2.93-0.02 0.69-0.82 1.26-1.79 1.28-0.96 0.02-2.65-0.88-3.75-1.99-1.1-1.12-3.8-2.47-6-3.01-2.2-0.54-5.35-0.63-7-0.19-1.65 0.43-4.46 1.77-6.25 2.97-1.78 1.21-3.92 1.96-4.75 1.69-0.98-0.33-1.24-1.07-0.75-2.14 0.42-0.91 2.55-2.7 4.75-3.98 2.98-1.74 5.55-2.34 10-2.35 3.53-0.01 7.24 0.63 9 1.55zm32 0.26c1.65 0.41 5.03 1.91 7.5 3.32 2.48 1.41 5.81 4.09 7.41 5.95 1.6 1.87 3.78 5.42 4.84 7.89 1.05 2.48 1.66 5.06 1.34 5.75-0.32 0.69-1.04 1.25-1.59 1.25-0.55 0-2.05-2.36-3.34-5.25-1.28-2.89-4.1-6.85-6.25-8.8-2.15-1.96-6.16-4.4-8.91-5.42-3.84-1.44-6.33-1.72-10.75-1.2-4.16 0.49-5.91 0.33-6.35-0.58-0.33-0.69-0.22-1.6 0.25-2.03 0.47-0.43 3.55-0.97 6.85-1.21 3.3-0.23 7.35-0.08 9 0.33zm-67 2.98c1.65 0.41 4.24 1.51 5.75 2.46 1.52 0.95 2.75 2.39 2.75 3.22 0 0.83-0.22 1.5-0.5 1.5-0.27 0-3.31-0.94-6.75-2.1-4.75-1.59-7.44-1.93-11.25-1.41-2.75 0.37-6.57 1.48-8.5 2.46-1.92 0.98-5.3 3.85-7.5 6.37-2.2 2.53-4.56 4.61-5.25 4.64-0.68 0.02-1.26-0.75-1.27-1.71-0.01-0.96 1.68-3.73 3.75-6.14 2.08-2.42 6.02-5.52 8.77-6.89 3.23-1.61 7.13-2.61 11-2.82 3.3-0.17 7.35 0.02 9 0.42zm69 6.32c1.1 0.62 3.28 2.3 4.84 3.74 1.57 1.44 3.48 3.86 4.25 5.37 0.78 1.51 1.41 3.88 1.41 5.25 0 1.38-0.45 2.5-1 2.5-0.55 0-2.27-2.36-3.83-5.25-2-3.69-3.93-5.77-6.5-7-2.12-1.01-5.99-1.75-9.17-1.75-4.67 0-5.46-0.26-5.24-1.75 0.22-1.43 1.45-1.79 6.75-1.99 3.57-0.14 7.39 0.26 8.49 0.88zm-69.82 2.77c2.91 0.96 4.82 2.18 4.82 3.09 0 1.02-0.8 1.4-2.5 1.18-1.37-0.18-4.75-0.57-7.5-0.87-3.5-0.37-5.97-0.05-8.25 1.08-1.78 0.88-4.58 3.07-6.21 4.86-2.35 2.57-3.24 3-4.25 2.05-1.04-0.98-0.95-1.69 0.46-3.75 0.97-1.4 3.22-3.67 5-5.03 1.8-1.38 5.56-2.87 8.43-3.35 3.9-0.65 6.35-0.47 10 0.74zm-25.93 18.15c1.24 0.52 2.1 1.5 1.92 2.19-0.24 0.89-2.2 1.14-6.75 0.87-5.22-0.31-7.44 0.08-11.92 2.09-3.02 1.36-6.97 4.01-8.78 5.88-1.8 1.88-4.05 5.34-5 7.69-0.94 2.36-2.28 4.27-2.97 4.25-0.68-0.01-1.25-1.27-1.26-2.78-0.01-1.51 1.34-4.89 3-7.5 1.66-2.61 5.15-6.3 7.76-8.19 2.62-1.89 6.67-3.92 9-4.5 2.34-0.58 6.17-1.03 8.5-1 2.34 0.04 5.27 0.49 6.5 1zm-4 7.64c2.49 0.23 3.25 0.77 3.25 2.3 0 1.79-0.66 2-6.25 1.99-4.26 0-7.04 0.54-8.75 1.7-1.37 0.94-3.17 2.61-4 3.71-0.82 1.09-2.17 3.32-3 4.94-0.82 1.61-1.95 2.99-2.5 3.05-0.55 0.06-1.14-1.01-1.32-2.39-0.22-1.64 0.81-4.02 3-6.91 1.83-2.43 4.9-5.19 6.82-6.14 1.93-0.95 4.85-1.91 6.5-2.14 1.65-0.23 4.47-0.27 6.25-0.11zm138.25 43.38c2.48 1.11 6.23 3.69 8.34 5.72 2.11 2.04 4.7 5.39 5.75 7.45 1.05 2.06 1.91 4.87 1.91 6.25 0 1.56-0.56 2.5-1.5 2.5-0.82 0-1.93-1.46-2.46-3.25-0.53-1.79-2.43-5.2-4.21-7.59-2.12-2.83-5.17-5.25-8.78-6.98-4.65-2.21-6.72-2.61-12.8-2.41-5.88 0.19-7.25-0.05-7.25-1.27 0-0.83 0.68-1.72 1.5-2 0.83-0.28 4.54-0.49 8.25-0.48 4.61 0.02 8.18 0.67 11.25 2.06zm-3.5 7.33c1.65 0.74 3.96 2.18 5.12 3.21 1.16 1.04 3.07 3.45 4.24 5.38 1.18 1.93 2.14 4.51 2.14 5.75 0 1.33-0.61 2.25-1.5 2.25-0.82 0-2.31-1.91-3.3-4.25-1-2.34-3.36-5.37-5.25-6.74-2.72-1.96-4.86-2.54-10.2-2.75-3.71-0.14-6.75-0.6-6.76-1.01-0.01-0.41 0.55-1.32 1.25-2.02 0.7-0.7 3.49-1.24 6.26-1.21 2.75 0.03 6.35 0.66 8 1.39z"/>
		</g>
	</g>
</svg>